<?xml version="1.0" encoding="UTF-8"?>
<svg id="Layer_2" data-name="Layer 2" xmlns="http://www.w3.org/2000/svg" viewBox="0 0 257.74 38.27">
  <defs>
    <style>
      .cls-1 {
        isolation: isolate;
      }

      .cls-2 {
        fill: #1f242e;
        stroke-width: 0px;
      }
    </style>
  </defs>
  <g id="Layer_1-2" data-name="Layer 1-2">
    <path class="cls-2" d="M6.88,9.2c1.73,0,3.38.53,4.79,1.55l8.13,5.84,5.75-4.14c3.08-2.21,3.78-6.51,1.57-9.59h0c-2.21-3.08-6.51-3.78-9.59-1.57l-11.03,7.93c.12,0,.25-.02.37-.02h.01Z"/>
    <path class="cls-2" d="M1.3,13.41h0c2.21-3.08,6.51-3.78,9.59-1.57l14.67,10.54c3.08,2.21,3.78,6.51,1.57,9.59h0c-2.21,3.08-6.51,3.78-9.59,1.57L2.87,23C-.21,20.79-.92,16.49,1.3,13.41Z"/>
    <path class="cls-2" d="M56.99,25.63h0c-1.73,0-3.38-.53-4.79-1.55l-8.13-5.84-5.75,4.14c-3.08,2.21-3.78,6.51-1.57,9.59s6.51,3.78,9.59,1.57l11.03-7.93c-.12,0-.24.02-.37.02h0Z"/>
    <path class="cls-2" d="M36.75,2.86h0c2.21-3.08,6.51-3.78,9.59-1.57l14.67,10.54c3.08,2.21,3.78,6.51,1.57,9.59h0c-2.21,3.08-6.51,3.78-9.59,1.57l-14.67-10.54c-3.08-2.21-3.78-6.51-1.57-9.59Z"/>
    <g class="cls-1">
      <g class="cls-1">
        <path class="cls-2" d="M91.87,18.18h7.89v10.76c-1.29.42-2.53.72-3.72.89-1.19.18-2.47.26-3.85.26-3.24,0-5.75-.96-7.5-2.88-1.76-1.92-2.64-4.63-2.64-8.13s.99-6.15,2.98-8.1c1.98-1.95,4.72-2.92,8.19-2.92,2.24,0,4.36.43,6.36,1.29l-1.23,2.92c-1.74-.8-3.48-1.2-5.22-1.2-2.29,0-4.09.72-5.42,2.16s-1.99,3.4-1.99,5.89c0,2.62.6,4.61,1.8,5.97,1.2,1.36,2.92,2.04,5.17,2.04,1.13,0,2.35-.14,3.64-.42v-5.53h-4.44v-3Z"/>
        <path class="cls-2" d="M122.33,18.88c0,3.54-.98,6.24-2.95,8.11-1.96,1.87-4.79,2.81-8.49,2.81h-6V8.37h6.63c3.41,0,6.06.92,7.96,2.76,1.9,1.84,2.84,4.42,2.84,7.75ZM118.64,19c0-5.13-2.4-7.7-7.2-7.7h-3.03v15.55h2.49c5.16,0,7.74-2.62,7.74-7.86Z"/>
        <path class="cls-2" d="M135.7,18.18h7.89v10.76c-1.29.42-2.53.72-3.72.89s-2.47.26-3.85.26c-3.24,0-5.75-.96-7.51-2.88-1.76-1.92-2.64-4.63-2.64-8.13s.99-6.15,2.98-8.1c1.98-1.95,4.72-2.92,8.19-2.92,2.24,0,4.36.43,6.36,1.29l-1.23,2.92c-1.74-.8-3.48-1.2-5.22-1.2-2.29,0-4.09.72-5.42,2.16s-1.99,3.4-1.99,5.89c0,2.62.6,4.61,1.8,5.97s2.92,2.04,5.17,2.04c1.13,0,2.35-.14,3.64-.42v-5.53h-4.44v-3Z"/>
        <path class="cls-2" d="M156.53,8.37h6.36c2.95,0,5.08.43,6.4,1.29,1.31.86,1.97,2.22,1.97,4.08,0,1.25-.32,2.29-.97,3.12-.64.83-1.57,1.35-2.79,1.57v.15c1.5.28,2.61.84,3.32,1.68.71.84,1.06,1.97,1.06,3.39,0,1.92-.67,3.43-2.02,4.52-1.34,1.09-3.21,1.63-5.61,1.63h-7.74V8.37ZM160.04,17.22h3.37c1.47,0,2.54-.23,3.21-.7.67-.46,1.01-1.25,1.01-2.37,0-1.01-.36-1.73-1.09-2.18-.73-.45-1.88-.67-3.47-.67h-3.03v5.92ZM160.04,20.07v6.79h3.72c1.47,0,2.57-.28,3.32-.84.75-.56,1.12-1.45,1.12-2.66,0-1.11-.38-1.94-1.14-2.48-.76-.54-1.92-.81-3.47-.81h-3.55Z"/>
        <path class="cls-2" d="M186.13,29.8l-.69-2.26h-.12c-.78.99-1.57,1.66-2.36,2.02-.79.36-1.81.54-3.05.54-1.59,0-2.84-.43-3.73-1.29-.89-.86-1.34-2.08-1.34-3.65,0-1.67.62-2.93,1.86-3.78,1.24-.85,3.13-1.31,5.67-1.39l2.8-.09v-.86c0-1.04-.24-1.81-.73-2.32-.48-.51-1.23-.77-2.25-.77-.83,0-1.63.12-2.39.37-.76.24-1.5.53-2.2.86l-1.11-2.46c.88-.46,1.84-.81,2.89-1.05,1.05-.24,2.03-.36,2.96-.36,2.06,0,3.62.45,4.67,1.35,1.05.9,1.58,2.31,1.58,4.24v10.92h-2.46ZM181,27.45c1.25,0,2.25-.35,3.01-1.05.76-.7,1.14-1.68,1.14-2.94v-1.41l-2.08.09c-1.62.06-2.8.33-3.54.81-.74.48-1.11,1.22-1.11,2.22,0,.72.21,1.28.64,1.68.43.4,1.08.59,1.93.59Z"/>
        <path class="cls-2" d="M201.62,13.3c.69,0,1.26.05,1.71.15l-.34,3.21c-.49-.12-1-.18-1.52-.18-1.38,0-2.49.45-3.35,1.35-.86.9-1.28,2.07-1.28,3.5v8.47h-3.44V13.59h2.7l.45,2.86h.18c.54-.97,1.24-1.73,2.1-2.3.87-.57,1.8-.85,2.79-.85Z"/>
        <path class="cls-2" d="M220.72,21.66c0,2.65-.68,4.72-2.04,6.2s-3.25,2.23-5.67,2.23c-1.51,0-2.85-.34-4.02-1.03-1.16-.68-2.06-1.67-2.68-2.95-.63-1.28-.94-2.76-.94-4.46,0-2.63.67-4.68,2.02-6.16s3.25-2.21,5.7-2.21,4.2.75,5.57,2.26,2.05,3.54,2.05,6.1ZM208.92,21.66c0,3.74,1.38,5.61,4.15,5.61s4.1-1.87,4.1-5.61-1.38-5.55-4.13-5.55c-1.45,0-2.49.48-3.14,1.44-.65.96-.97,2.33-.97,4.12Z"/>
        <path class="cls-2" d="M230.15,30.09c-2.02,0-3.6-.73-4.73-2.2s-1.7-3.52-1.7-6.17.57-4.73,1.72-6.21c1.15-1.48,2.74-2.22,4.77-2.22s3.75.79,4.87,2.36h.18c-.17-1.16-.25-2.08-.25-2.76v-5.91h3.46v22.81h-2.7l-.6-2.12h-.16c-1.1,1.61-2.72,2.42-4.85,2.42ZM231.07,27.31c1.42,0,2.45-.4,3.09-1.19.64-.8.98-2.09,1-3.88v-.48c0-2.04-.33-3.49-1-4.35-.67-.86-1.71-1.29-3.12-1.29-1.21,0-2.15.49-2.8,1.47-.66.98-.98,2.38-.98,4.2s.32,3.17.95,4.11c.63.94,1.59,1.41,2.86,1.41Z"/>
        <path class="cls-2" d="M253.53,29.8l-.69-2.26h-.12c-.78.99-1.57,1.66-2.36,2.02-.79.36-1.81.54-3.05.54-1.59,0-2.84-.43-3.73-1.29-.89-.86-1.34-2.08-1.34-3.65,0-1.67.62-2.93,1.86-3.78,1.24-.85,3.13-1.31,5.67-1.39l2.8-.09v-.86c0-1.04-.24-1.81-.73-2.32-.48-.51-1.23-.77-2.25-.77-.83,0-1.63.12-2.39.37-.76.24-1.5.53-2.2.86l-1.11-2.46c.88-.46,1.84-.81,2.89-1.05,1.05-.24,2.03-.36,2.96-.36,2.06,0,3.62.45,4.67,1.35,1.05.9,1.58,2.31,1.58,4.24v10.92h-2.46ZM248.39,27.45c1.25,0,2.25-.35,3.01-1.05.76-.7,1.14-1.68,1.14-2.94v-1.41l-2.08.09c-1.62.06-2.8.33-3.54.81-.74.48-1.11,1.22-1.11,2.22,0,.72.21,1.28.64,1.68.43.4,1.08.59,1.93.59Z"/>
      </g>
    </g>
  </g>
</svg>