<?xml version="1.0" encoding="UTF-8"?><svg id="Layer_2" xmlns="http://www.w3.org/2000/svg" viewBox="0 0 377.91 466.66"><defs><style>.cls-1{fill:#1f242e;}.cls-2{fill:#1b2631;}</style></defs><g id="Layer_1-2"><path class="cls-2" d="M377.25,159.96v241.14h-17.69v-241.14c0-82.62-64.65-150.13-146.12-154.71,2.93-.17,5.88-.25,8.84-.25,85.58,0,154.96,69.37,154.96,154.96Z"/><path class="cls-2" d="M377.25,401.76h-17.69c-.36,0-.66-.29-.66-.66v-241.14c0-81.8-63.91-149.46-145.5-154.05-.35-.02-.62-.31-.62-.66s.27-.64.62-.66c2.93-.17,5.92-.25,8.88-.25,41.57,0,80.65,16.19,110.04,45.58,29.39,29.39,45.58,68.47,45.58,110.04v241.14c0,.36-.29.66-.66.66ZM360.22,400.45h16.37v-240.48c0-84.12-67.68-152.74-151.45-154.27,76.63,10.09,135.08,75.72,135.08,154.27v240.48Z"/><path class="cls-2" d="M359.56,401.76H67.33c-.36,0-.66-.29-.66-.66v-241.14c0-41.57,16.19-80.65,45.58-110.03,27.08-27.08,63-43.18,101.15-45.33.03,0,.05,0,.07,0,82.28,4.63,146.74,72.87,146.74,155.36v241.14c0,.36-.29.66-.66.66ZM67.99,400.45h290.92v-240.48c0-81.79-63.89-149.45-145.46-154.05-37.82,2.14-73.42,18.1-100.26,44.95-29.14,29.14-45.19,67.88-45.19,109.1v240.48Z"/><path class="cls-2" d="M282.74,438.52c-9.8,0-21.92-1.8-36.08-5.43-33.31-8.53-73.97-26.11-114.5-49.51-40.53-23.4-76.09-49.82-100.13-74.4-24.22-24.77-33.87-44.8-27.17-56.41,6.7-11.61,28.87-13.27,62.44-4.67.35.09.56.45.47.8-.09.35-.45.57-.8.47-32.94-8.43-54.59-6.99-60.97,4.06-6.38,11.05,3.2,30.52,26.97,54.83,23.96,24.5,59.42,50.84,99.85,74.18s80.97,40.88,114.17,49.38c32.94,8.43,54.59,6.99,60.97-4.06,3.61-6.25,2.13-15.17-4.41-26.5-.18-.31-.07-.72.24-.9.32-.18.72-.07.9.24,6.78,11.77,8.27,21.12,4.41,27.81-3.88,6.71-12.93,10.1-26.36,10.1Z"/><polygon class="cls-1" points="38.19 210.87 24.35 216.12 19.1 229.96 13.85 216.12 0 210.87 13.85 205.62 19.1 191.77 24.35 205.62 38.19 210.87"/><polygon class="cls-1" points="38.19 210.87 24.35 216.12 19.1 229.96 13.85 216.12 0 210.87 13.85 205.62 19.1 191.77 24.35 205.62 38.19 210.87"/><polygon class="cls-1" points="355.37 430.58 341.52 435.83 336.27 449.67 331.02 435.83 317.17 430.58 331.02 425.33 336.27 411.48 341.52 425.33 355.37 430.58"/><polygon class="cls-1" points="355.37 430.58 341.52 435.83 336.27 449.67 331.02 435.83 317.17 430.58 331.02 425.33 336.27 411.48 341.52 425.33 355.37 430.58"/><polygon class="cls-1" points="58.97 225.29 51.93 227.96 49.26 235 46.59 227.96 39.55 225.29 46.59 222.62 49.26 215.58 51.93 222.62 58.97 225.29"/><polygon class="cls-1" points="58.97 225.29 51.93 227.96 49.26 235 46.59 227.96 39.55 225.29 46.59 222.62 49.26 215.58 51.93 222.62 58.97 225.29"/><polygon class="cls-1" points="47 166.55 39.96 169.22 37.29 176.26 34.62 169.22 27.58 166.55 34.62 163.88 37.29 156.84 39.96 163.88 47 166.55"/><polygon class="cls-1" points="47 166.55 39.96 169.22 37.29 176.26 34.62 169.22 27.58 166.55 34.62 163.88 37.29 156.84 39.96 163.88 47 166.55"/><polygon class="cls-1" points="303.74 456.95 296.7 459.62 294.03 466.66 291.36 459.62 284.32 456.95 291.36 454.28 294.03 447.23 296.7 454.28 303.74 456.95"/><polygon class="cls-1" points="303.74 456.95 296.7 459.62 294.03 466.66 291.36 459.62 284.32 456.95 291.36 454.28 294.03 447.23 296.7 454.28 303.74 456.95"/><polygon class="cls-1" points="326.88 378.01 319.89 380.81 317.34 387.89 314.55 380.9 307.46 378.35 314.46 375.56 317 368.47 319.8 375.47 326.88 378.01"/><polygon class="cls-1" points="326.88 378.01 319.89 380.81 317.34 387.89 314.55 380.9 307.46 378.35 314.46 375.56 317 368.47 319.8 375.47 326.88 378.01"/><polygon class="cls-2" points="101.02 43.37 45.03 0 88.9 54.64 67.74 62.88 89.66 70.98 68.97 104.69 101.78 82.88 110.26 104.66 118.12 83.36 173.52 126.27 129.18 71.04 152.04 62.15 129.94 53.98 149.58 21.59 118.07 42.32 109.52 20.37 101.02 43.37"/></g></svg>