<?xml version="1.0" encoding="UTF-8"?>
<svg id="Layer_2" data-name="Layer 2" xmlns="http://www.w3.org/2000/svg" viewBox="0 0 1378.14 838.28">
  <defs>
    <style>
      .cls-1 {
        isolation: isolate;
      }

      .cls-2 {
        fill: #232b34;
        stroke-width: 0px;
      }
    </style>
  </defs>
  <g id="Layer_1-2" data-name="Layer 1-2">
    <polygon class="cls-2" points="1258.84 336.83 1250.07 262.59 1175.83 253.82 1250.07 245.05 1258.84 170.81 1267.61 245.05 1341.85 253.82 1267.61 262.59 1258.84 336.83"/>
    <polygon class="cls-2" points="1209.28 93.88 1201.14 72.41 1179.68 64.27 1201.14 56.13 1209.28 34.67 1217.42 56.13 1238.89 64.27 1217.42 72.41 1209.28 93.88"/>
    <polygon class="cls-2" points="1209.28 93.88 1201.14 72.41 1179.68 64.27 1201.14 56.13 1209.28 34.67 1217.42 56.13 1238.89 64.27 1217.42 72.41 1209.28 93.88"/>
    <polygon class="cls-2" points="1034.64 834.6 1026.5 813.14 1005.03 805 1026.5 796.85 1034.64 775.39 1042.78 796.85 1064.24 805 1042.78 813.14 1034.64 834.6"/>
    <polygon class="cls-2" points="1034.64 834.6 1026.5 813.14 1005.03 805 1026.5 796.85 1034.64 775.39 1042.78 796.85 1064.24 805 1042.78 813.14 1034.64 834.6"/>
    <polygon class="cls-2" points="1191.54 168.43 1070.01 182.79 1055.65 419.19 1041.29 182.79 919.75 168.43 1041.29 154.07 1055.65 32.54 1070.01 154.07 1191.54 168.43"/>
    <path class="cls-2" d="M874.28,507.29c-.88,0-1.75-.4-2.31-1.16-15.7-21.28-30.83-43.03-44.97-64.64-.87-1.32-.49-3.1.83-3.96,1.32-.87,3.1-.49,3.96.83,14.08,21.52,29.14,43.17,44.78,64.37.94,1.27.67,3.07-.6,4.01-.51.38-1.11.56-1.7.56h0Z"/>
    <path class="cls-2" d="M1295.69,838.28c-19.29,0-41.46-4.74-66-14.22-47.87-18.49-103.88-54.55-161.97-104.26-1.2-1.03-1.34-2.84-.31-4.04,1.03-1.2,2.84-1.34,4.04-.31,118.23,101.19,222.03,140.67,270.89,103,36.91-28.45,40.06-96.59,8.85-191.86-31.52-96.22-94.29-208.13-176.75-315.13s-174.7-196.21-259.71-251.2c-84.18-54.45-150.88-68.77-187.79-40.32-35.12,27.07-39.63,90.88-12.7,179.67.46,1.51-.4,3.11-1.91,3.57-1.51.45-3.11-.4-3.57-1.91-27.68-91.23-22.46-157.24,14.68-185.87,38.98-30.04,108.02-15.82,194.4,40.05,85.55,55.33,178.29,145.01,261.13,252.51,82.85,107.5,145.94,220.03,177.65,316.85,32.02,97.76,28.19,168.14-10.8,198.18-13.23,10.19-30.13,15.29-50.14,15.29h.01Z"/>
    <g class="cls-1">
      <g class="cls-1">
        <path class="cls-2" d="M87.7,189.09c66.9,0,103.43,44.87,103.43,97.27,0,46.11-29.69,94.26-95.9,94.26H10.53v-4.65h27.36v-182.23H10.53v-4.65h77.16ZM59.92,193.74v182.23h36.12c57.6,0,71.14-44.6,71.14-88.65,0-49.39-17.92-93.58-77.71-93.58h-29.55Z"/>
        <path class="cls-2" d="M321.37,358.32c-9.44,15.19-27.5,25.86-47.34,25.86-31.06,0-60.61-27.09-60.61-66.49s28.87-66.63,60.06-66.63,47.88,26.54,47.88,55.82c0,1.5,0,3.01-.14,4.52h-86.74c0,1.78-.14,3.56-.14,5.33,0,41.86,17.1,62.11,42.55,62.11,17.24,0,32.42-9.44,41.04-23.12l3.42,2.6ZM300.57,306.74c.14-1.92.14-3.83.14-5.75,0-25.72-9.71-45.28-29.82-45.28s-34.2,20.66-36.25,51.03h65.94Z"/>
        <path class="cls-2" d="M414.26,254.48h49.39v4.65h-.68c-14.09,0-20.52,12.72-31.74,41.32l-32.15,82.09h-4.65l-45.7-123.4h-16.14v-4.65h56.91v4.65h-20.52l35.57,97.68,22.57-58.55c4.24-10.95,6.29-19.15,6.29-25.17,0-10.12-5.88-13.95-17.51-13.95h-1.64v-4.65Z"/>
        <path class="cls-2" d="M545.33,380.62h-79.76v-4.65h27.36v-182.23h-27.36v-4.65h141.05l2.05,63.62-4.38.14-.68-16.01c-1.09-25.99-11.77-43.1-49.53-43.1h-39.13v89.88h9.85c9.44,0,16.83-.55,21.07-1.78,11.22-3.28,16.14-15.87,16.69-32.7h4.38v73.33h-4.38c-.68-19.29-5.34-29.41-16.14-32.56-4.79-1.37-12.04-1.78-21.62-1.78h-9.85v87.83h30.37v4.65Z"/>
        <path class="cls-2" d="M716.2,358.32c-9.44,15.19-27.5,25.86-47.34,25.86-31.06,0-60.61-27.09-60.61-66.49s28.87-66.63,60.06-66.63,47.88,26.54,47.88,55.82c0,1.5,0,3.01-.14,4.52h-86.74c0,1.78-.14,3.56-.14,5.33,0,41.86,17.1,62.11,42.55,62.11,17.24,0,32.42-9.44,41.04-23.12l3.42,2.6ZM695.41,306.74c.14-1.92.14-3.83.14-5.75,0-25.72-9.71-45.28-29.82-45.28s-34.2,20.66-36.25,51.03h65.94Z"/>
        <path class="cls-2" d="M819.22,294.16c-4.1-23.53-22.03-38.58-41.59-38.58-15.19,0-26.4,8.89-26.4,22.03,0,15.19,14.5,20.66,37.49,28.46,21.34,7.39,39.95,14.5,39.95,38.44s-17.38,39.67-40.91,39.67c-14.91,0-26.27-6.98-33.11-13.68-5.75,1.64-9.58,6.16-10.67,12.04h-3.56l-2.46-44.87,4.38-.27c2.74,20.52,19.84,42.27,44.6,42.27,16.55,0,29.69-9.3,29.69-25.31,0-16.96-14.23-22.44-36.12-29.69-21.75-7.25-39.13-16.96-39.13-39.54s17.1-34.07,35.98-34.07c13.96,0,24.22,6.43,29.83,11.77,6.02-.68,9.85-5.61,10.81-11.77h3.56l2.19,42.96-4.51.14Z"/>
        <path class="cls-2" d="M918.4,369.95c-4.51,6.29-13.41,14.23-26.27,14.23-22.98,0-28.05-18.2-28.05-38.72v-86.33h-19.97v-4.65h19.97v-24.35c6.57-2.46,14.78-9.03,19.02-15.6v39.95h33.79v4.65h-33.79v97.96c0,16.01,5.75,21.34,13.54,21.34,8.21,0,15.32-7.11,18.06-11.22l3.69,2.74Z"/>
      </g>
    </g>
    <g class="cls-1">
      <g class="cls-1">
        <path class="cls-2" d="M445.11,461.53c41.45,0,67.17,17.79,67.17,44.19,0,18.2-12.45,41.86-55.68,45.15.27,0,.14.27,0,.27,39.95,1.64,65.26,20.79,65.26,51.71,0,32.83-28.32,50.21-67.04,50.21h-85.37v-4.65h27.36v-182.23h-27.36v-4.65h75.66ZM429.24,548.95c16.69,0,24.9-.41,33.38-2.87,18.74-5.34,26.54-20.25,26.54-39.54,0-25.58-12.72-40.36-44.46-40.36h-25.86v82.77h10.4ZM451.68,648.41c32.56,0,46.1-15.19,46.1-45.56,0-25.17-9.71-44.74-42.41-48.57-5.88-.68-9.03-.68-21.34-.68h-15.19v94.81h32.83Z"/>
        <path class="cls-2" d="M660.04,644.71c-4.1,5.61-12.45,11.9-22.57,11.9-12.59,0-18.74-8.89-19.15-22.03-2.19,6.43-16.96,22.03-38.72,22.03-17.51,0-38.44-10.26-38.44-33.24,0-16.83,9.71-24.76,29.82-28.73,22.71-4.38,47.61-11.08,47.61-37.49,0-16.01-9.71-29.14-31.47-29.14s-33.66,10.54-33.66,23.94c1.09-5.2,5.06-8.76,10.53-8.76,6.43,0,11.22,4.79,11.22,11.49,0,7.11-5.47,11.9-12.18,11.9-7.11,0-13.68-5.2-13.68-15.46,0-15.87,15.87-27.64,39.95-27.64,29.14,0,47.75,16.14,47.75,51.17v67.72c0,4.79,1.92,7.52,6.43,7.52,5.2,0,10.12-3.56,13.54-8.62l3.01,3.42ZM618.17,573.98c-5.47,12.86-20.93,20.66-48.16,25.31-6.16,4.51-9.17,12.59-9.17,23.12,0,19.97,11.77,28.05,24.63,28.05,17.92,0,30.51-15.05,32.7-23.67v-52.81Z"/>
        <path class="cls-2" d="M755.12,556.75c-6.98,0-12.31-5.47-12.31-12.04s5.06-11.77,11.49-11.77c3.97,0,7.39,2.05,9.58,5.33-1.37-4.92-5.88-10.53-15.6-10.53-26.4,0-37.21,43.23-37.21,76.61v44.05h24.08v4.65h-66.76v-4.65h22.85v-116.84h-22.85v-4.65c19.7,0,31.6-1.09,42.68-3.83v51.03c3.15-22.57,14.09-50.62,36.94-50.62,13.68,0,20.52,8.89,20.52,18.47,0,8.76-5.75,14.78-13.41,14.78Z"/>
        <path class="cls-2" d="M900.55,590.26c0,38.99-29.28,66.35-60.47,66.35s-60.47-27.63-60.47-66.49,29.28-66.63,60.47-66.63,60.47,27.64,60.47,66.76ZM840.49,528.02c-26.27,0-39.95,25.45-39.95,61.56s14.09,62.52,39.54,62.52,39.54-25.31,39.54-62.38-13.13-61.7-39.13-61.7Z"/>
        <path class="cls-2" d="M1035.57,648.41h22.71v4.65h-36.53c-.68-5.06-2.74-13.82-6.7-18.47-3.83,7.39-16.42,22.03-38.85,22.03-31.74,0-55.68-29.96-55.68-67.72s25.72-65.4,55.27-65.4c23.53,0,37.08,16.28,40.77,27.09v-84.41h-22.85v-4.65c19.29,0,30.92-1.23,41.86-3.83v190.71ZM978.8,528.84c-23.53,0-37.35,22.16-37.35,60.06,0,34.89,11.77,62.52,38.44,62.52,18.47,0,31.6-13.27,35.16-26.4,2.05-7.66,2.87-23.39,2.87-37.49,0-10.67-.41-20.25-1.23-25.04-2.46-15.73-16.42-33.66-37.9-33.66Z"/>
        <path class="cls-2" d="M1189.75,644.71c-4.1,5.61-12.45,11.9-22.57,11.9-12.59,0-18.74-8.89-19.15-22.03-2.19,6.43-16.96,22.03-38.72,22.03-17.51,0-38.44-10.26-38.44-33.24,0-16.83,9.71-24.76,29.83-28.73,22.71-4.38,47.61-11.08,47.61-37.49,0-16.01-9.71-29.14-31.47-29.14s-33.66,10.54-33.66,23.94c1.09-5.2,5.06-8.76,10.53-8.76,6.43,0,11.22,4.79,11.22,11.49,0,7.11-5.47,11.9-12.18,11.9-7.11,0-13.68-5.2-13.68-15.46,0-15.87,15.87-27.64,39.95-27.64,29.14,0,47.75,16.14,47.75,51.17v67.72c0,4.79,1.92,7.52,6.43,7.52,5.2,0,10.12-3.56,13.54-8.62l3.01,3.42ZM1147.89,573.98c-5.47,12.86-20.93,20.66-48.16,25.31-6.16,4.51-9.17,12.59-9.17,23.12,0,19.97,11.77,28.05,24.63,28.05,17.92,0,30.51-15.05,32.7-23.67v-52.81Z"/>
      </g>
    </g>
  </g>
</svg>