<?xml version="1.0" encoding="UTF-8"?><svg id="Layer_2" xmlns="http://www.w3.org/2000/svg" viewBox="0 0 600.12 76.39"><defs><style>.cls-1{fill:#ef3c23;}</style></defs><g id="Layer_1-2"><path d="M178.35,68.77l-21.46-50.21h-13.25l-24.73,56.94h13.27l1.55-3.83,2.34-5.78.58-1.46,4.22-10.33,3.69-9.07,5.34-13.06,6.68,16.52,2.27,5.62c1.3,3.25,2.92,7.31,4.13,10.33l.23.56.56,1.37.46,1.14.19.49.23.58.09.21,1.09,2.71,1.62,4.01h13.76l-1.74-4.08-1.14-2.65Z"/><path d="M227.63,23.72c-3.96-3.44-9.57-5.16-16.84-5.16h-24.16v56.94h12.85v-16.27h11.31c7.21,0,12.81-1.83,16.8-5.49,3.98-3.66,5.98-8.8,5.98-15.41s-1.98-11.16-5.94-14.6ZM218.48,46c-1.93,1.66-4.71,2.48-8.34,2.48h-10.65v-19.28h10.65c3.63,0,6.41.8,8.34,2.4,1.92,1.6,2.89,3.97,2.89,7.12s-.97,5.63-2.89,7.28Z"/><path d="M282.27,23.72c-3.96-3.44-9.57-5.16-16.84-5.16h-24.16v56.94h12.85v-16.27h11.31c7.21,0,12.81-1.83,16.8-5.49,3.99-3.66,5.98-8.8,5.98-15.41s-1.98-11.16-5.94-14.6ZM273.12,46c-1.93,1.66-4.71,2.48-8.34,2.48h-10.65v-19.28h10.65c3.63,0,6.41.8,8.34,2.4,1.92,1.6,2.89,3.97,2.89,7.12s-.96,5.63-2.89,7.28Z"/><polygon points="327.97 53.53 310.24 18.55 295.92 18.55 295.92 75.49 307.47 75.49 307.47 37.02 323.74 69.72 332.03 69.72 348.22 37.02 348.22 75.49 359.77 75.49 359.77 18.55 345.54 18.55 327.97 53.53"/><polygon points="390.01 18.56 368.23 68.77 367.53 70.37 365.3 75.5 378.55 75.5 380.64 70.3 381.27 68.77 383.03 64.43 383.17 64.43 387.32 54.11 387.25 54.11 391.78 43.04 396.28 31.97 402.01 46.13 405.24 54.11 409.39 64.43 411.69 70.14 413.87 75.5 427.6 75.5 403.29 18.56 390.01 18.56"/><polygon points="421.31 29.45 438.64 29.45 438.64 75.49 451.49 75.49 451.49 29.45 468.9 29.45 468.9 18.55 421.31 18.55 421.31 29.45"/><polygon points="472.12 29.45 489.44 29.45 489.44 75.49 502.3 75.49 502.3 29.45 519.7 29.45 519.7 18.55 472.12 18.55 472.12 29.45"/><rect x="525.62" y="18.55" width="12.85" height="56.94"/><path d="M592.55,57.92c-2.06,2.06-4.41,3.7-7.04,4.92-2.63,1.22-5.22,1.83-7.77,1.83-3.2,0-6.13-.8-8.79-2.4-2.66-1.6-4.75-3.77-6.26-6.51-1.52-2.74-2.28-5.76-2.28-9.07s.76-6.32,2.28-9.03c1.52-2.71,3.61-4.85,6.26-6.43,2.66-1.57,5.58-2.36,8.79-2.36,2.66,0,5.3.66,7.93,1.99,2.63,1.33,4.92,3.16,6.87,5.49l7.48-9.19c-2.82-2.93-6.24-5.25-10.25-6.95-4.01-1.71-8.08-2.56-12.2-2.56-5.64,0-10.78,1.28-15.42,3.82-4.64,2.55-8.28,6.05-10.94,10.49-2.66,4.45-3.99,9.41-3.99,14.89s1.3,10.55,3.9,15.05c2.6,4.5,6.18,8.04,10.74,10.62,4.55,2.58,9.62,3.86,15.21,3.86,4.12,0,8.23-.92,12.32-2.77,4.09-1.84,7.66-4.34,10.7-7.48l-7.56-8.22Z"/><polygon class="cls-1" points="81.74 0 100.59 0 100.59 2.44 100.59 43.03 86.09 57.54 86.09 57.54 81.74 61.88 67.24 76.39 43.31 76.39 62.16 57.54 81.74 57.54 81.74 21.29 26.64 76.39 0 76.39 76.39 0 81.74 0"/></g></svg>