<?xml version="1.0" encoding="UTF-8"?>
<svg id="Layer_1" xmlns="http://www.w3.org/2000/svg" version="1.1" xmlns:xlink="http://www.w3.org/1999/xlink" viewBox="0 0 738.8 365.6">
  <!-- Generator: Adobe Illustrator 29.0.1, SVG Export Plug-In . SVG Version: 2.1.0 Build 192)  -->
  <defs>
    <style>
      .st0 {
        fill: url(#linear-gradient1);
      }

      .st1 {
        fill: #061033;
      }

      .st2 {
        fill: #9861ff;
      }

      .st3 {
        fill: url(#linear-gradient);
      }
    </style>
    <linearGradient id="linear-gradient" x1="177.8" y1="142.1" x2="247.7" y2="286.3" gradientUnits="userSpaceOnUse">
      <stop offset="0" stop-color="#6711ff"/>
      <stop offset=".2" stop-color="#7223ff"/>
      <stop offset=".5" stop-color="#8746ff"/>
      <stop offset=".8" stop-color="#945bff"/>
      <stop offset="1" stop-color="#9963ff"/>
    </linearGradient>
    <linearGradient id="linear-gradient1" x1="95.6" y1="290.9" x2="161.2" y2="154.7" xlink:href="#linear-gradient"/>
  </defs>
  <g>
    <path class="st1" d="M201.8,259.8c-9,3.6-18.8,5.6-29,5.6s-20.1-2-29-5.6l29-59.3,29,59.3Z"/>
    <g>
      <polygon class="st3" points="267.7 282.6 225 282.6 151.5 132.5 194.2 132.5 267.7 282.6"/>
      <polygon class="st0" points="166.8 188.3 120.6 282.6 77.9 282.6 145.4 144.7 166.8 188.3"/>
    </g>
    <path class="st1" d="M267.5,187.9c0,16.6-4.3,32.2-11.8,45.8l-9.8-20c2.9-8.1,4.4-16.8,4.4-25.8,0-21.7-8.9-41.3-23.3-55.4-14-13.7-33.1-22.1-54.2-22.1s-40.3,8.4-54.2,22.1c-14.4,14.1-23.3,33.7-23.3,55.4s1.6,17.7,4.4,25.8l-9.8,20c-7.5-13.6-11.8-29.2-11.8-45.8s6.6-39.8,17.9-55.4c17.2-23.8,45.2-39.3,76.8-39.3s59.6,15.5,76.8,39.3c11.2,15.6,17.9,34.7,17.9,55.4Z"/>
  </g>
  <path class="st1" d="M662.6,154.9c-6.2,0-11.2-5-11.2-11.2s5-11.2,11.2-11.2,11.2,5,11.2,11.2-5,11.2-11.2,11.2ZM662.6,134.9c-4.8,0-8.8,3.9-8.8,8.8s3.9,8.8,8.8,8.8,8.8-3.9,8.8-8.8-3.9-8.8-8.8-8.8Z"/>
  <path class="st1" d="M665.4,148.7l-1.9-2.8h-2.1v2.8h-2.3v-10h4.3c.9,0,1.7.1,2.3.4.7.3,1.2.7,1.5,1.3.4.5.5,1.2.5,1.9s-.2,1.4-.5,1.9c-.4.5-.9,1-1.5,1.2l2.3,3.2h-2.5ZM664.8,141c-.4-.3-.9-.5-1.6-.5h-1.9v3.5h1.9c.7,0,1.2-.2,1.6-.5.4-.3.5-.7.5-1.3s-.2-1-.5-1.3Z"/>
  <g>
    <path class="st1" d="M343.7,131.9h14.7l41.9,105h-15.6l-10.5-26.1h-46.4l-10.2,26.1h-15.8l41.9-105ZM369.9,198l-18.9-49.1-18.9,49.1h37.8Z"/>
    <path class="st1" d="M420.5,232.8c-4-4.2-5.9-10.2-5.9-17.9v-38.4h-11v-11.7h11v-21.6h15.3v21.6h17.7v11.7h-17.7v37.4c0,4.8.9,8.2,2.8,10.2,1.9,2,5.2,3,10.1,3s5.8-.6,8.7-2v12c-3.8,1.3-8.5,2-14.1,2s-12.9-2.1-16.9-6.3Z"/>
    <path class="st1" d="M468.3,125.9h15.2v111h-15.2v-111Z"/>
    <path class="st1" d="M508.1,148.1c-1.7-1.7-2.6-3.8-2.6-6.3s.8-4.6,2.6-6.3c1.7-1.7,3.8-2.6,6.3-2.6s4.8.9,6.5,2.6c1.8,1.7,2.6,3.8,2.6,6.3s-.9,4.6-2.6,6.3c-1.8,1.7-3.9,2.6-6.5,2.6s-4.6-.8-6.3-2.6ZM506.7,164.8h15.5v72.1h-15.5v-72.1Z"/>
    <path class="st1" d="M570.3,230.4c-8.8-4.3-15.6-10.4-20.4-18.4-4.9-8-7.3-17.2-7.3-27.9s2.4-20.2,7.2-28.5c4.8-8.3,11.4-14.7,19.8-19.2,8.4-4.6,17.8-6.8,28.2-6.8s19.8,2.3,28.2,6.8c8.4,4.6,15,11,19.8,19.2,4.8,8.3,7.2,17.7,7.2,28.5s-1.9,16.3-5.8,23.3c-3.9,7.1-8.9,12.4-15.2,16.1h22.7v13.2h-54.2c-11.4,0-21.5-2.2-30.3-6.5ZM618.4,218.4c6-3,10.7-7.4,14-13.3,3.4-5.9,5-12.8,5-20.9s-1.8-15.1-5.3-21.2c-3.5-6.2-8.3-10.9-14.3-14.2-6-3.3-12.7-5-20.1-5s-14.1,1.7-20.2,5c-6.1,3.3-10.8,8-14.3,14.1-3.5,6.1-5.3,13.2-5.3,21.3s1.7,15.2,5,21c3.4,5.8,8,10.2,14,13.2,6,3,12.9,4.5,20.7,4.5s14.6-1.5,20.6-4.5Z"/>
  </g>
  <g>
    <path class="st2" d="M388,273.2c-.4.3-.8.5-1.4.7-.5.2-1.1.2-1.7.2-1.5,0-2.6-.4-3.4-1.2-.8-.8-1.2-1.9-1.2-3.4v-6.5h-2.2v-2.5h2.2v-3.1h3.2v3.1h3.6v2.5h-3.6v6.4c0,.7.2,1.2.5,1.5.3.3.8.5,1.4.5s1.3-.2,1.8-.6l.9,2.3Z"/>
    <path class="st2" d="M412.7,268.2h-10.6c.2,1,.7,1.8,1.5,2.4.8.6,1.8.9,2.9.9s2.7-.5,3.7-1.5l1.7,1.9c-.6.7-1.4,1.3-2.3,1.6-.9.4-2,.6-3.1.6s-2.8-.3-3.9-.9c-1.1-.6-2-1.4-2.6-2.5-.6-1.1-.9-2.2-.9-3.6s.3-2.5.9-3.6c.6-1.1,1.4-1.9,2.5-2.5,1.1-.6,2.3-.9,3.6-.9s2.5.3,3.5.9c1,.6,1.8,1.4,2.4,2.5.6,1.1.9,2.3.9,3.7s0,.5,0,.9ZM403.4,263.7c-.7.6-1.1,1.4-1.3,2.4h7.7c-.1-1-.5-1.8-1.2-2.4-.7-.6-1.6-.9-2.6-.9s-1.9.3-2.6.9Z"/>
    <path class="st2" d="M428.2,273.2c-1.1-.6-2-1.4-2.6-2.5-.6-1.1-.9-2.2-.9-3.6s.3-2.5.9-3.6c.6-1,1.5-1.9,2.6-2.5,1.1-.6,2.4-.9,3.8-.9s2.5.3,3.5.8c1,.5,1.8,1.3,2.3,2.3l-2.4,1.4c-.4-.6-.9-1.1-1.5-1.4-.6-.3-1.2-.5-1.9-.5-1.2,0-2.2.4-2.9,1.2-.8.8-1.2,1.8-1.2,3.1s.4,2.3,1.2,3.1c.8.8,1.8,1.2,2.9,1.2s1.3-.2,1.9-.5c.6-.3,1.1-.8,1.5-1.4l2.4,1.4c-.5,1-1.3,1.8-2.3,2.3-1,.5-2.2.8-3.5.8s-2.7-.3-3.8-.9Z"/>
    <path class="st2" d="M462.1,261.7c1,1,1.5,2.5,1.5,4.4v7.7h-3.2v-7.3c0-1.2-.3-2.1-.8-2.7-.6-.6-1.4-.9-2.4-.9s-2.1.4-2.8,1.1c-.7.7-1,1.7-1,3v6.8h-3.2v-18.8h3.2v6.8c.5-.6,1.2-1,1.9-1.3.8-.3,1.6-.4,2.6-.4,1.7,0,3.1.5,4.1,1.5Z"/>
    <path class="st2" d="M489.5,261.7c1,1,1.5,2.5,1.5,4.4v7.7h-3.2v-7.3c0-1.2-.3-2.1-.8-2.7-.6-.6-1.4-.9-2.4-.9s-2.1.4-2.8,1.1c-.7.7-1,1.7-1,3v6.8h-3.2v-13.5h3v1.7c.5-.6,1.2-1.1,2-1.4.8-.3,1.7-.5,2.7-.5,1.7,0,3.1.5,4.1,1.5Z"/>
    <path class="st2" d="M507.5,273.2c-1.1-.6-2-1.4-2.6-2.5-.6-1.1-.9-2.2-.9-3.6s.3-2.5.9-3.6c.6-1,1.5-1.9,2.6-2.5,1.1-.6,2.3-.9,3.7-.9s2.6.3,3.7.9c1.1.6,2,1.4,2.6,2.5.6,1,.9,2.2.9,3.6s-.3,2.5-.9,3.6c-.6,1.1-1.5,1.9-2.6,2.5-1.1.6-2.3.9-3.7.9s-2.6-.3-3.7-.9ZM514.1,270.2c.8-.8,1.1-1.8,1.1-3.1s-.4-2.3-1.1-3.1c-.8-.8-1.7-1.2-2.9-1.2s-2.1.4-2.9,1.2c-.8.8-1.1,1.8-1.1,3.1s.4,2.3,1.1,3.1c.8.8,1.7,1.2,2.9,1.2s2.1-.4,2.9-1.2Z"/>
    <path class="st2" d="M531.4,255.1h3.2v18.8h-3.2v-18.8Z"/>
    <path class="st2" d="M551.1,273.2c-1.1-.6-2-1.4-2.6-2.5-.6-1.1-.9-2.2-.9-3.6s.3-2.5.9-3.6c.6-1,1.5-1.9,2.6-2.5,1.1-.6,2.3-.9,3.7-.9s2.6.3,3.7.9c1.1.6,2,1.4,2.6,2.5.6,1,.9,2.2.9,3.6s-.3,2.5-.9,3.6c-.6,1.1-1.5,1.9-2.6,2.5-1.1.6-2.3.9-3.7.9s-2.6-.3-3.7-.9ZM557.7,270.2c.8-.8,1.1-1.8,1.1-3.1s-.4-2.3-1.1-3.1c-.8-.8-1.7-1.2-2.9-1.2s-2.1.4-2.9,1.2c-.8.8-1.1,1.8-1.1,3.1s.4,2.3,1.1,3.1c.8.8,1.7,1.2,2.9,1.2s2.1-.4,2.9-1.2Z"/>
    <path class="st2" d="M588.4,260.4v11.5c0,4.8-2.4,7.1-7.3,7.1s-2.5-.2-3.7-.5c-1.2-.3-2.1-.8-2.9-1.4l1.4-2.4c.6.5,1.3.9,2.2,1.2.9.3,1.8.4,2.7.4,1.5,0,2.6-.3,3.3-1,.7-.7,1-1.7,1-3.1v-.7c-.5.6-1.2,1-2,1.3-.8.3-1.6.5-2.6.5s-2.4-.3-3.5-.8c-1-.5-1.9-1.3-2.5-2.3-.6-1-.9-2.1-.9-3.4s.3-2.4.9-3.4c.6-1,1.4-1.8,2.5-2.3,1-.5,2.2-.8,3.5-.8s1.9.2,2.7.5c.8.3,1.5.8,2,1.5v-1.8h3ZM584.2,269.5c.8-.7,1.2-1.6,1.2-2.8s-.4-2.1-1.2-2.8c-.8-.7-1.8-1.1-2.9-1.1s-2.2.4-3,1.1c-.8.7-1.2,1.6-1.2,2.8s.4,2.1,1.2,2.8c.8.7,1.8,1.1,3,1.1s2.2-.4,2.9-1.1Z"/>
    <path class="st2" d="M602.7,257.6c-.4-.4-.6-.8-.6-1.4s.2-1,.6-1.4c.4-.4.9-.5,1.4-.5s1.1.2,1.4.5c.4.3.6.8.6,1.3s-.2,1-.6,1.4-.9.6-1.5.6-1.1-.2-1.4-.5ZM602.6,260.4h3.2v13.5h-3.2v-13.5Z"/>
    <path class="st2" d="M632.5,268.2h-10.6c.2,1,.7,1.8,1.5,2.4.8.6,1.8.9,2.9.9s2.7-.5,3.7-1.5l1.7,1.9c-.6.7-1.4,1.3-2.3,1.6-.9.4-2,.6-3.1.6s-2.8-.3-3.9-.9c-1.1-.6-2-1.4-2.6-2.5-.6-1.1-.9-2.2-.9-3.6s.3-2.5.9-3.6c.6-1.1,1.4-1.9,2.5-2.5,1.1-.6,2.3-.9,3.6-.9s2.5.3,3.5.9c1,.6,1.8,1.4,2.4,2.5.6,1.1.9,2.3.9,3.7s0,.5,0,.9ZM623.2,263.7c-.7.6-1.1,1.4-1.3,2.4h7.7c-.1-1-.5-1.8-1.2-2.4-.7-.6-1.6-.9-2.6-.9s-1.9.3-2.6.9Z"/>
    <path class="st2" d="M646.5,273.7c-1-.3-1.9-.6-2.5-1.1l1.2-2.4c.6.4,1.3.7,2.2,1,.9.2,1.7.4,2.5.4,1.9,0,2.8-.5,2.8-1.5s-.2-.8-.7-1c-.5-.2-1.3-.4-2.3-.5-1.1-.2-2-.4-2.7-.6-.7-.2-1.3-.6-1.8-1.2-.5-.5-.8-1.3-.8-2.3s.5-2.3,1.6-3.1c1.1-.8,2.5-1.2,4.3-1.2s1.9.1,2.8.3c.9.2,1.7.5,2.3.8l-1.2,2.4c-1.1-.7-2.4-1-3.9-1s-1.6.1-2.1.4c-.5.3-.7.6-.7,1.1s.3.9.8,1.1c.5.2,1.3.4,2.4.6,1.1.2,2,.4,2.7.6.7.2,1.3.6,1.8,1.1.5.5.7,1.3.7,2.2s-.5,2.3-1.6,3c-1.1.8-2.6,1.1-4.5,1.1s-2.2-.1-3.2-.4Z"/>
  </g>
</svg>