<svg width="160" height="32" viewBox="0 0 160 32" fill="none" xmlns="http://www.w3.org/2000/svg">
<path d="M30.3978 20.2109L24.4321 0.418156H20.4735L14.5078 20.2109H17.8809L19.3027 15.1651H25.575L27.0246 20.2109H30.3978ZM22.5085 3.26162C22.9546 5.68692 23.6794 8.64189 24.7945 12.4053H20.0832C21.1983 8.64189 21.951 5.68692 22.397 3.26162H22.5085Z" fill="#1A1B1E"/>
<path d="M36.2552 8.72553V15.4997C36.2552 18.6219 38.0672 20.4339 41.7191 20.4339C43.0572 20.4339 43.9772 20.2388 44.702 20.0994V17.3395C43.9772 17.4511 43.1408 17.5347 42.2488 17.5347C40.4925 17.5347 39.5447 16.6705 39.5447 14.9979V8.72553H44.702V6.27234H39.5447V1.42173L36.2552 2.73195V6.27234H32.436V8.72553H36.2552Z" fill="#1A1B1E"/>
<path d="M48.5523 6.27234L53.9047 20.0715L53.6259 20.9078C53.0962 22.5804 52.2042 23.1937 50.6988 23.1937C50.3085 23.1937 49.8625 23.1659 49.4165 23.1101V25.7027C49.8904 25.8142 50.4758 25.8421 50.9497 25.8421C53.7095 25.8421 55.7446 24.727 57.0548 20.9914L62.3793 6.27234H58.9225L55.633 16.9771L52.2599 6.27234H48.5523Z" fill="#1A1B1E"/>
<path d="M77.4919 11.6805C77.4919 7.72195 75.7078 5.93782 71.8608 5.93782C68.0974 5.93782 65.8114 7.6662 65.5606 10.7327H68.9894C69.1009 9.17156 70.0488 8.30737 71.6935 8.30737C73.394 8.30737 74.1467 9.22731 74.1467 11.2345V11.6526L71.4147 12.0429C69.2403 12.3217 67.7628 12.7119 66.8708 13.2695C65.7278 13.9943 65.1424 15.0815 65.1424 16.4754C65.1424 18.8728 67.0102 20.5454 69.7421 20.5454C72.0559 20.5454 73.5613 19.5697 74.3976 17.7298C74.4255 18.5383 74.5091 19.3746 74.6206 20.2109H77.9101C77.6313 19.2631 77.4919 17.8413 77.4919 15.8899V11.6805ZM74.2303 14.4961C74.2303 16.7262 72.8922 18.1759 70.8293 18.1759C69.4076 18.1759 68.5713 17.4232 68.5713 16.1687C68.5713 14.9421 69.4633 14.3009 71.6099 13.9664L74.2303 13.5761V14.4961Z" fill="#1A1B1E"/>
<path d="M85.2729 6.27234H82.1507V20.2109H85.4123V12.6841C85.4123 10.9836 86.1092 8.64189 88.6182 8.64189C89.8726 8.64189 91.0714 9.31094 91.0714 11.9593V20.2109H94.3609V11.5969C94.3609 9.28307 93.8869 7.94497 92.9949 7.08078C92.1028 6.21659 90.8762 5.93782 89.789 5.93782C87.5031 5.93782 85.9977 7.27592 85.2729 8.97642V6.27234Z" fill="#1A1B1E"/>
<path d="M102.058 8.72553V15.4997C102.058 18.6219 103.87 20.4339 107.522 20.4339C108.86 20.4339 109.78 20.2388 110.505 20.0994V17.3395C109.78 17.4511 108.944 17.5347 108.052 17.5347C106.296 17.5347 105.348 16.6705 105.348 14.9979V8.72553H110.505V6.27234H105.348V1.42173L102.058 2.73195V6.27234H98.239V8.72553H102.058Z" fill="#1A1B1E"/>
<path d="M123.415 3.93067V0.0836302H119.345V3.93067H123.415ZM127.848 20.2109V17.7019H123.276V6.27234H116.084V8.78128H120.014V17.7019H115.665V20.2109H127.848Z" fill="#1A1B1E"/>
<path d="M144.661 20.2109L139.476 11.5969L144.382 6.27234H140.424L135.015 12.6283V0H131.754V20.2109H135.015V15.9736L137.106 13.7434L140.758 20.2109H144.661Z" fill="#1A1B1E"/>
<path d="M83.2986 30.9625H84.4481V26.8087H85.8092V25.9201H81.9375V26.8087H83.2986V30.9625Z" fill="#808080"/>
<path d="M87.154 30.9625H90.5532V30.0739H88.2894V28.8186H90.0102V27.9864H88.2894V26.8087H90.4404V25.9201H87.154V30.9625Z" fill="#808080"/>
<path d="M94.1849 31.0401C95.4261 31.0401 96.3218 30.3983 96.4487 29.1501H95.3274C95.2357 29.7989 94.7985 30.1163 94.1708 30.1163C93.3386 30.1163 92.8591 29.5098 92.8591 28.466V28.4096C92.8591 27.3658 93.3668 26.7452 94.1637 26.7452C94.7985 26.7452 95.137 27.0696 95.2216 27.6761H96.3923C96.2724 26.4349 95.3697 25.8425 94.1567 25.8425C92.7251 25.8425 91.6531 26.8863 91.6531 28.4166V28.4731C91.6531 30.0246 92.5347 31.0401 94.1849 31.0401Z" fill="#808080"/>
<path d="M97.8242 30.9625H98.9667V28.8821H100.991V30.9625H102.133V25.9201H100.991V27.9794H98.9667V25.9201H97.8242V30.9625Z" fill="#808080"/>
<path d="M103.845 30.9625H104.86V27.3729L106.962 30.9625H108.104V25.9201H107.089V29.2418L105.17 25.9201H103.845V30.9625Z" fill="#808080"/>
<path d="M112.172 30.1304C111.347 30.1304 110.755 29.4956 110.755 28.466V28.4096C110.755 27.394 111.284 26.7523 112.158 26.7523C113.04 26.7523 113.561 27.4223 113.561 28.4025V28.459C113.561 29.4745 113.025 30.1304 112.172 30.1304ZM112.151 31.0401C113.724 31.0401 114.753 29.947 114.753 28.4448V28.3884C114.753 26.8722 113.674 25.8496 112.158 25.8496C110.663 25.8496 109.563 26.9145 109.563 28.4166V28.4731C109.563 29.947 110.571 31.0401 112.151 31.0401Z" fill="#808080"/>
<path d="M116.216 30.9625H119.411V30.0669H117.358V25.9201H116.216V30.9625Z" fill="#808080"/>
<path d="M122.966 30.1304C122.141 30.1304 121.549 29.4956 121.549 28.466V28.4096C121.549 27.394 122.078 26.7523 122.952 26.7523C123.834 26.7523 124.356 27.4223 124.356 28.4025V28.459C124.356 29.4745 123.82 30.1304 122.966 30.1304ZM122.945 31.0401C124.518 31.0401 125.548 29.947 125.548 28.4448V28.3884C125.548 26.8722 124.469 25.8496 122.952 25.8496C121.457 25.8496 120.357 26.9145 120.357 28.4166V28.4731C120.357 29.947 121.365 31.0401 122.945 31.0401Z" fill="#808080"/>
<path d="M129.316 31.0401C130.826 31.0401 131.686 30.1445 131.686 28.7975V28.2615H129.422V29.0937H130.558C130.536 29.672 130.191 30.1586 129.345 30.1586C128.357 30.1586 127.941 29.4604 127.941 28.4872V28.4307C127.941 27.4011 128.456 26.7452 129.33 26.7452C129.937 26.7452 130.325 27.0132 130.424 27.6056H131.559C131.439 26.3574 130.438 25.8425 129.316 25.8425C127.828 25.8425 126.749 26.9004 126.749 28.4166V28.4731C126.749 29.9682 127.666 31.0401 129.316 31.0401Z" fill="#808080"/>
<path d="M133.176 30.9625H134.325V25.9201H133.176V30.9625Z" fill="#808080"/>
<path d="M136.076 30.9625H139.475V30.0739H137.211V28.8186H138.932V27.9864H137.211V26.8087H139.362V25.9201H136.076V30.9625Z" fill="#808080"/>
<path d="M142.668 31.0401C143.86 31.0401 144.593 30.3278 144.593 29.4322C144.593 28.3884 143.965 28.057 142.745 27.9018C141.97 27.789 141.807 27.6197 141.807 27.2601C141.807 26.9215 142.061 26.6888 142.562 26.6888C143.063 26.6888 143.331 26.9004 143.401 27.3588H144.452C144.36 26.3574 143.697 25.8496 142.562 25.8496C141.448 25.8496 140.728 26.4913 140.728 27.3517C140.728 28.325 141.257 28.7128 142.548 28.8821C143.288 28.9949 143.5 29.136 143.5 29.538C143.5 29.9329 143.169 30.2079 142.668 30.2079C141.92 30.2079 141.73 29.8342 141.681 29.3828H140.587C140.651 30.3913 141.286 31.0401 142.668 31.0401Z" fill="#808080"/>
<path d="M9.471 15.8012V13.1598L3.90262 10.0425L9.471 6.9965V4.3313L0 9.75689V10.3756L9.471 15.8012Z" fill="#1A1B1E"/>
<path d="M149.68 15.825L159.174 10.3756V9.78069L149.68 4.3313V6.97271L155.248 10.09L149.68 13.136V15.825Z" fill="#1A1B1E"/>
</svg>
