<?xml version="1.0" encoding="UTF-8"?><svg id="Layer_2" xmlns="http://www.w3.org/2000/svg" viewBox="0 0 490.41 132.28"><defs><style>.cls-1,.cls-2{fill-rule:evenodd;}.cls-2{fill:#5356a5;}.cls-3{font-family:ProductSans-Bold, 'Product Sans';font-size:30px;font-weight:700;}.cls-4{letter-spacing:-.02em;}.cls-5{letter-spacing:-.02em;}.cls-6{letter-spacing:-.02em;}.cls-7{letter-spacing:-.05em;}.cls-8{letter-spacing:-.04em;}.cls-9{letter-spacing:-.03em;}.cls-10{letter-spacing:0em;}.cls-11{letter-spacing:0em;}.cls-12{letter-spacing:0em;}.cls-13{letter-spacing:0em;}</style></defs><g id="Layer_1-2"><g id="logo_primary_color_onLight"><g id="logo"><g id="UI-Element-_logoMark"><path id="logo_fill" class="cls-2" d="M79.01,0c2.66,0,5.12,1.44,6.37,3.78,1.2,2.24,1.14,4.88-.13,7.08l-.04.07-11.2,18.73c-1.27,2.12-3.55,3.44-5.99,3.47h-.08s-12.79,0-12.79,0l5.31,12.17.02.04.03.06c1.25,2.26,1.22,4.95-.08,7.18l-.04.07-11.2,18.73c-1.27,2.12-3.55,3.44-5.99,3.47h-.08s-15.69,0-15.69,0l-11.28,11.9-.02.02c-1.06,1.08-2.5,1.68-3.99,1.68-.37,0-.75-.04-1.12-.11-1.82-.37-3.34-1.62-4.07-3.35l-.02-.05-5.94-13.63-.03-.05-.03-.06s-.01-.02-.02-.03c-1.25-2.26-1.22-4.95.08-7.18l.04-.07,10.86-18.17L3.9,27.42l.15-.07h0c-.34-1.7-.07-3.45.8-4.99l.05-.08.04-.08L16.13,3.47C17.4,1.35,19.68.03,22.13,0h56.89ZM20.22,74.7h-11.9s3.49,8.08,3.49,8.08v.02c.07.14.16.22.3.25.12.03.23,0,.32-.09l.02-.02,7.77-8.25ZM54.23,46.91H18.27s-.08,0-.12,0h-.01s9.86,22.55,9.86,22.55h15.13c.62,0,1.22-.33,1.56-.87l.03-.04,11.21-18.74c.33-.56.37-1.21.11-1.79-.31-.67-1.01-1.11-1.8-1.11ZM14.53,51.54l-8.9,15c-.35.6-.37,1.3-.06,1.91l.03.06.02.03.04.06.07.11.08.1.08.09h.01s.05.07.05.07l.04.04c.28.25.63.41,1.01.45h.09s.05,0,.05,0h.06s15.1,0,15.1,0l-7.77-17.93ZM12.19,33.17l3.91,8.96.08-.03c.67-.23,1.38-.35,2.09-.36h.11s34.86,0,34.86,0l-3.74-8.58H12.19ZM78.91,5.23h-36.09l9.86,22.56h15.12c.62,0,1.22-.33,1.56-.87l.03-.04,11.21-18.74c.33-.56.37-1.21.11-1.79-.3-.66-.99-1.1-1.76-1.12h-.05ZM37.3,5.23h-15.04c-.62,0-1.21.33-1.55.87l-.03.04-11.18,18.74c-.33.56-.37,1.21-.11,1.79.3.66.98,1.09,1.75,1.11h.05s35.95,0,35.95,0l-9.84-22.56Z"/></g><path id="FlutterFlow" class="cls-1" d="M138.61,28.09l.04-11.48h-31.55v52.2h11.88v-19.16h15.54l.04-11.48h-15.59v-10.07h19.63ZM145.33,68.81h11.13V14.37h-11.13v54.44ZM188.61,31.52v20.36c0,5.29-2.82,7.68-6.9,7.68-3.56,0-6.46-2.16-6.46-6.79v-21.25h-11.13v22.89c0,10.07,6.38,15.44,13.88,15.44,4.9,0,8.61-1.79,10.61-4.55v3.5h11.13V31.52h-11.13ZM229.65,42.26v-10.74h-7.65v-10.44l-11.13,3.36v7.08h-5.94v10.74h5.94v13.2c0,10.44,4.23,14.84,18.78,13.35v-10.14c-4.9.3-7.65,0-7.65-3.21v-13.2h7.65ZM258.45,42.26v-10.74h-7.65v-10.44l-11.13,3.36v7.08h-5.94v10.74h5.94v13.2c0,10.44,4.23,14.84,18.78,13.35v-10.14c-4.9.3-7.65,0-7.65-3.21v-13.2h7.65ZM275.45,54.64h26.35c.3-1.42.45-2.91.45-4.47,0-11.26-8.02-19.69-18.85-19.69-11.73,0-19.74,8.58-19.74,19.69s7.87,19.69,20.56,19.69c7.05,0,12.54-2.61,16.18-7.68l-8.91-5.15c-1.48,1.64-4.08,2.83-7.13,2.83-4.08,0-7.5-1.34-8.91-5.22ZM275.23,46.29c1.04-3.8,3.86-5.89,8.09-5.89,3.34,0,6.68,1.57,7.87,5.89h-15.96ZM319.69,38.16v-6.64h-11.13v37.29h11.13v-16.85c0-7.38,6.53-9.25,11.13-8.5v-12.68c-4.68,0-9.65,2.39-11.13,7.38ZM367.89,28.09l.04-11.48h-31.55v52.2h11.88v-19.16h15.54l.04-11.48h-15.59v-10.07h19.63ZM374.62,68.81h11.13V14.37h-11.13v54.44ZM411.73,69.85c10.91,0,19.67-8.58,19.67-19.69s-8.76-19.69-19.67-19.69-19.67,8.58-19.67,19.69,8.76,19.69,19.67,19.69ZM411.73,58.97c-4.82,0-8.54-3.5-8.54-8.8s3.71-8.8,8.54-8.8,8.54,3.5,8.54,8.8-3.71,8.8-8.54,8.8ZM478.53,31.52l-5.34,19.99-5.79-19.99h-10.39l-5.79,19.99-5.34-19.99h-11.88l11.88,37.29h10.39l5.94-19.91,5.94,19.91h10.39l11.88-37.29h-11.88Z"/></g></g><text class="cls-3" transform="translate(109.27 123.73)"><tspan class="cls-6" x="0" y="0">D</tspan><tspan class="cls-13" x="21.12" y="0">e</tspan><tspan class="cls-6" x="37.5" y="0">v</tspan><tspan x="53.76" y="0">e</tspan><tspan class="cls-10" x="70.44" y="0">lo</tspan><tspan x="94.71" y="0">per</tspan><tspan class="cls-4" x="141.48" y="0" xml:space="preserve"> G</tspan><tspan class="cls-9" x="171.18" y="0">r</tspan><tspan class="cls-12" x="182.49" y="0">o</tspan><tspan x="199.62" y="0">up</tspan><tspan class="cls-8" x="234.72" y="0"> </tspan><tspan class="cls-7" x="240.12" y="0">V</tspan><tspan class="cls-11" x="259.02" y="0">ad</tspan><tspan x="292.77" y="0">o</tspan><tspan class="cls-11" x="310.05" y="0">d</tspan><tspan x="327.9" y="0">a</tspan><tspan class="cls-5" x="343.95" y="0">r</tspan><tspan x="355.56" y="0">a</tspan></text></g></svg>