<?xml version="1.0" encoding="UTF-8"?>
<!DOCTYPE svg PUBLIC "-//W3C//DTD SVG 1.1//EN" "http://www.w3.org/Graphics/SVG/1.1/DTD/svg11.dtd">
<!-- Creator: CorelDRAW X7 -->
<svg xmlns="http://www.w3.org/2000/svg" xml:space="preserve" width="8.5in" height="11in" version="1.1" style="shape-rendering:geometricPrecision; text-rendering:geometricPrecision; image-rendering:optimizeQuality; fill-rule:evenodd; clip-rule:evenodd"
viewBox="0 0 8500 11000"
 xmlns:xlink="http://www.w3.org/1999/xlink">
 <defs>
  <style type="text/css">
   <![CDATA[
    .fil2 {fill:#444545}
    .fil0 {fill:#616161;fill-rule:nonzero}
    .fil1 {fill:#6AC966;fill-rule:nonzero}
   ]]>
  </style>
 </defs>
 <g id="Layer_x0020_1">
  <metadata id="CorelCorpID_0Corel-Layer"/>
  <path class="fil0" d="M2217 6091l-59 0 0 -210c0,-50 -2,-84 -7,-102 -14,-58 -52,-88 -113,-88 -35,0 -66,12 -94,34 -28,23 -46,51 -55,85 -6,21 -8,61 -8,120l0 161 -59 0 0 -442 59 0 0 80c46,-61 102,-91 169,-91 33,0 63,8 89,25 27,16 46,39 59,67 12,29 19,74 19,134l0 227z"/>
  <path id="1" class="fil0" d="M2790 5871c0,65 -23,120 -68,164 -45,45 -101,67 -167,67 -67,0 -122,-22 -168,-66 -45,-45 -68,-100 -68,-165 0,-61 21,-114 63,-159 45,-49 103,-74 173,-74 69,0 127,25 173,74 41,45 62,98 62,159zm-60 2c0,-49 -17,-91 -50,-126 -34,-35 -76,-52 -125,-52 -50,0 -91,17 -125,52 -34,35 -51,77 -51,126 0,31 8,60 23,87 16,28 37,49 64,64 27,16 57,23 89,23 68,0 119,-29 152,-86 15,-27 23,-57 23,-88z"/>
  <polygon id="2" class="fil0" points="3281,5649 3074,6091 3064,6091 2855,5649 2917,5649 3069,5970 3218,5649 "/>
  <path id="3" class="fil0" d="M3757 5866c0,50 -5,89 -15,118 -13,40 -37,71 -72,92 -30,17 -66,26 -110,26 -87,0 -146,-33 -176,-99 -15,-32 -22,-79 -22,-141l0 -213 59 0 0 206c0,51 3,85 8,104 9,28 25,50 50,65 23,15 50,22 81,22 30,0 57,-7 79,-20 24,-15 41,-36 50,-63 6,-17 9,-53 9,-108l0 -206 59 0 0 217z"/>
  <path id="4" class="fil0" d="M4564 6091l-59 0 0 -241c0,-37 -2,-62 -5,-77 -6,-28 -20,-49 -41,-63 -17,-11 -37,-16 -60,-16 -29,0 -55,8 -78,24 -24,17 -41,38 -51,65 -11,27 -16,72 -16,135l0 173 -59 0 0 -226c0,-41 -1,-69 -4,-84 -6,-32 -20,-55 -42,-70 -16,-12 -37,-17 -60,-17 -28,0 -54,8 -77,24 -23,16 -39,37 -50,63 -11,27 -17,68 -17,123l0 187 -59 0 0 -442 59 0 0 76c42,-58 94,-87 155,-87 47,0 84,15 111,46 13,14 23,34 33,60 39,-71 95,-106 166,-106 67,0 112,29 137,88 11,27 17,69 17,124l0 241z"/>
  <polygon id="5" class="fil1" points="4734,6091 4675,6091 4675,5478 4734,5478 "/>
  <path id="6" class="fil1" d="M5304 5871c0,65 -23,120 -68,164 -45,45 -101,67 -167,67 -67,0 -123,-22 -168,-66 -45,-45 -68,-100 -68,-165 0,-61 21,-114 62,-159 46,-49 104,-74 174,-74 69,0 127,25 172,74 42,45 63,98 63,159zm-60 2c0,-49 -17,-91 -51,-126 -34,-35 -75,-52 -125,-52 -49,0 -91,17 -125,52 -33,35 -50,77 -50,126 0,31 7,60 23,87 15,28 37,49 64,64 27,16 56,23 88,23 69,0 120,-29 152,-86 16,-27 24,-57 24,-88z"/>
  <path id="7" class="fil1" d="M5860 6001c0,61 -6,107 -17,136 -16,43 -45,76 -85,97 -37,20 -80,30 -130,30 -78,0 -138,-20 -180,-59 -19,-18 -37,-45 -54,-80l63 0c34,58 90,86 167,86 79,0 132,-25 159,-76 11,-22 17,-57 17,-105l0 -23c-45,56 -105,84 -180,84 -41,0 -80,-10 -117,-30 -36,-19 -64,-47 -84,-81 -20,-34 -30,-72 -30,-113 0,-41 10,-79 31,-114 20,-36 49,-64 86,-84 36,-21 75,-31 116,-31 68,0 128,29 178,88l0 -77 60 0 0 352zm-57 -134c0,-69 -29,-119 -86,-151 -27,-15 -56,-22 -88,-22 -32,0 -63,7 -91,23 -28,15 -50,37 -66,64 -16,28 -24,57 -24,89 0,50 17,90 51,121 34,31 76,46 127,46 53,0 96,-15 128,-46 32,-31 49,-73 49,-124z"/>
  <path id="8" class="fil1" d="M6052 5514c0,13 -5,24 -14,33 -10,9 -21,13 -34,13 -13,0 -24,-4 -33,-13 -10,-9 -14,-20 -14,-33 0,-13 4,-24 13,-33 10,-9 21,-14 34,-14 13,0 24,5 34,14 9,9 14,20 14,33zm-18 577l-60 0 0 -442 60 0 0 442z"/>
  <path id="9" class="fil1" d="M6593 6003c-45,66 -116,99 -211,99 -70,0 -128,-21 -176,-63 -49,-44 -73,-99 -73,-165 0,-43 11,-83 33,-120 22,-36 52,-65 91,-85 38,-21 81,-31 129,-31 62,0 114,16 158,48 19,14 35,33 49,55l-46 28c-40,-51 -94,-77 -163,-77 -53,0 -98,16 -135,49 -38,34 -57,77 -57,129 0,32 9,62 26,90 16,29 39,51 69,66 29,16 61,24 97,24 67,0 121,-26 163,-77l46 30z"/>
  <g id="_1944270633744">
   <polygon class="fil0" points="3215,4750 2583,4634 2583,3983 3215,4100 "/>
   <polygon class="fil1" points="5116,2700 4694,2982 4608,3610 5054,3467 "/>
   <polygon class="fil1" points="5050,4150 4608,4286 4608,3662 5055,3547 "/>
   <polygon class="fil1" points="5055,4861 4608,4999 4608,4340 5055,4212 "/>
   <polygon class="fil1" points="5531,4718 5101,4851 5101,4205 5531,4093 "/>
   <polygon class="fil1" points="3673,2624 3081,2535 2584,2608 3213,2708 "/>
   <polygon class="fil1" points="4351,2710 3731,2646 3275,2736 3896,2825 "/>
   <path class="fil1" d="M3950 2839l648 0c0,0 139,-105 250,-342 0,0 -128,159 -345,217l-553 125z"/>
   <polygon class="fil0" points="3212,4049 2585,3937 2585,3309 3212,3421 "/>
   <polygon class="fil1" points="3887,4170 3260,4058 3260,3432 3887,3542 "/>
   <polygon class="fil0" points="4561,4290 3934,4178 3934,3555 4561,3662 "/>
   <polygon class="fil1" points="3887,4873 3260,4758 3260,4107 3887,4218 "/>
   <polygon class="fil0" points="4561,4997 3934,4882 3935,4226 4561,4336 "/>
   <polygon class="fil0" points="3212,3371 2585,3263 2585,2635 3212,2747 "/>
   <polygon class="fil0" points="3887,3495 3260,3381 3260,2755 3887,2867 "/>
   <polygon class="fil0" points="4561,3616 3933,3503 3933,2875 4560,2987 "/>
   <path class="fil1" d="M5369 2261c-174,0 -264,62 -439,62 63,-180 165,-276 227,-455 174,0 503,-72 523,1 20,72 -249,213 -311,392z"/>
   <path class="fil1" d="M5704 2842c-124,27 -25,27 -277,76 -7,-311 34,-388 101,-481l304 -90c-25,179 -103,315 -128,495z"/>
  </g>
  <rect class="fil2" x="1796" y="6190" width="3555.56" height="27.7795"/>
  <rect class="fil2" x="5915" y="6190" width="678.335" height="27.7795"/>
  <polygon class="fil0" points="3231,6613 3231,6383 3314,6383 3314,6354 3117,6354 3117,6383 3199,6383 3199,6613 "/>
  <path id="1" class="fil0" d="M3396 6618c30,0 56,-11 75,-29l-14 -19c-16,15 -37,24 -59,24 -40,0 -65,-30 -67,-65l152 0 0 -8c0,-56 -34,-100 -91,-100 -53,0 -92,44 -92,98 0,59 40,99 96,99zm58 -111l-123 0c1,-28 21,-62 61,-62 43,0 62,34 62,62z"/>
  <path id="2" class="fil0" d="M3613 6618c34,0 54,-14 68,-33l-19 -18c-12,17 -28,25 -48,25 -40,0 -65,-31 -65,-73 0,-42 25,-72 65,-72 20,0 36,7 48,24l19 -18c-14,-18 -34,-32 -68,-32 -56,0 -94,42 -94,98 0,56 38,99 94,99z"/>
  <path id="3" class="fil0" d="M3879 6613l0 -132c0,-41 -21,-60 -60,-60 -28,0 -54,16 -67,32l0 -99 -29 0 0 259 29 0 0 -137c11,-15 33,-29 55,-29 26,0 43,9 43,43l0 123 29 0z"/>
  <path id="4" class="fil0" d="M4093 6613l0 -132c0,-40 -20,-60 -59,-60 -29,0 -54,16 -68,32l0 -28 -29 0 0 188 29 0 0 -137c12,-15 33,-29 56,-29 25,0 42,10 42,43l0 123 29 0z"/>
  <path id="5" class="fil0" d="M4234 6618c57,0 93,-44 93,-99 0,-54 -36,-98 -93,-98 -57,0 -93,44 -93,98 0,55 36,99 93,99zm0 -26c-40,0 -62,-34 -62,-73 0,-38 22,-72 62,-72 40,0 62,34 62,72 0,39 -22,73 -62,73z"/>
  <polygon id="6" class="fil0" points="4404,6613 4404,6354 4374,6354 4374,6613 "/>
  <path id="7" class="fil0" d="M4544 6618c57,0 93,-44 93,-99 0,-54 -36,-98 -93,-98 -57,0 -93,44 -93,98 0,55 36,99 93,99zm0 -26c-40,0 -62,-34 -62,-73 0,-38 22,-72 62,-72 40,0 62,34 62,72 0,39 -22,73 -62,73z"/>
  <path id="8" class="fil0" d="M4760 6689c46,0 90,-19 90,-79l0 -185 -30 0 0 29c-15,-21 -38,-33 -63,-33 -49,0 -84,37 -84,97 0,61 35,98 84,98 27,0 49,-15 63,-34l0 28c0,40 -29,55 -60,55 -27,0 -46,-7 -61,-25l-15 21c23,22 44,28 76,28zm4 -100c-38,0 -60,-29 -60,-71 0,-41 22,-71 60,-71 23,0 46,14 56,30l0 82c-10,16 -33,30 -56,30z"/>
  <path id="9" class="fil0" d="M4923 6399c11,0 19,-9 19,-20 0,-11 -8,-20 -19,-20 -11,0 -20,9 -20,20 0,11 9,20 20,20zm14 214l0 -188 -29 0 0 188 29 0z"/>
  <path id="10" class="fil0" d="M5081 6618c30,0 55,-11 74,-29l-14 -19c-15,15 -36,24 -58,24 -40,0 -65,-30 -67,-65l151 0 0 -8c0,-56 -33,-100 -90,-100 -54,0 -92,44 -92,98 0,59 40,99 96,99zm58 -111l-124 0c2,-28 22,-62 62,-62 43,0 61,34 62,62z"/>
  <path id="11" class="fil0" d="M5274 6618c49,0 74,-25 74,-57 0,-73 -116,-46 -116,-87 0,-17 15,-30 41,-30 25,0 45,11 56,24l14 -20c-15,-15 -38,-27 -70,-27 -45,0 -69,24 -69,54 0,69 116,41 116,87 0,19 -16,32 -45,32 -26,0 -49,-12 -62,-27l-15 21c20,20 45,30 76,30z"/>
  <path id="12" class="fil0" d="M5529 6613l0 -103 72 0c52,0 82,-36 82,-78 0,-42 -30,-78 -82,-78l-104 0 0 259 32 0zm68 -132l-68 0 0 -98 68 0c31,0 52,20 52,49 0,29 -21,49 -52,49z"/>
  <polygon id="13" class="fil0" points="5806,6613 5884,6425 5853,6425 5790,6579 5728,6425 5696,6425 5774,6613 "/>
  <path id="14" class="fil0" d="M5963 6618c16,0 27,-5 34,-12l-8 -22c-4,4 -12,8 -20,8 -13,0 -19,-10 -19,-24l0 -117 38 0 0 -26 -38 0 0 -51 -29 0 0 51 -31 0 0 26 31 0 0 123c0,28 14,44 42,44z"/>
  <polygon id="15" class="fil0" points="6280,6613 6280,6584 6159,6584 6159,6354 6127,6354 6127,6613 "/>
  <path id="16" class="fil0" d="M6357 6618c16,0 27,-5 34,-12l-8 -22c-4,4 -12,8 -20,8 -13,0 -19,-10 -19,-24l0 -117 38 0 0 -26 -38 0 0 -51 -29 0 0 51 -32 0 0 26 32 0 0 123c0,28 14,44 42,44z"/>
  <path id="17" class="fil0" d="M6588 6613l0 -259 -29 0 0 100c-15,-21 -38,-33 -63,-33 -49,0 -84,38 -84,98 0,62 35,99 84,99 26,0 49,-14 63,-33l0 28 29 0zm-85 -21c-38,0 -60,-31 -60,-73 0,-41 22,-72 60,-72 23,0 46,14 56,30l0 85c-10,16 -33,30 -56,30z"/>
 </g>
</svg>
