<svg id="Layer_1" data-name="Layer 1" xmlns="http://www.w3.org/2000/svg" viewBox="0 0 1080 400"><defs><style>.cls-1{fill:#002e70;}.cls-2{fill:#7ae0e5;}</style></defs><title>pardy-panda-full-color-horizontal-mark-horizontal-mark</title><path class="cls-1" d="M520.71,90.16a19.34,19.34,0,0,0-14.31-6H422.57V188.09h19.08V152.53l64.75-.13a20.25,20.25,0,0,0,20.24-20.09v-28A19.4,19.4,0,0,0,520.71,90.16Zm-13.29,38.09c0,2.71-.2,4.19-.58,4.49s-1.87.42-4.48.42H446.71c-2.7,0-4.22-.13-4.56-.42s-.5-1.78-.5-4.49V108.31c0-2.7.15-4.22.5-4.55s1.86-.52,4.56-.52h55.65c2.61,0,4.09.17,4.48.52s.58,1.85.58,4.55Z"/><path class="cls-1" d="M636.79,90A19.44,19.44,0,0,0,622.49,84H558.73a20.25,20.25,0,0,0-20.08,20.09v84h19.07v-35h65.77v35h19.23v-84A19.29,19.29,0,0,0,636.79,90ZM623.49,134H557.72V108.31c0-2.7.16-4.22.51-4.55s1.86-.52,4.56-.52h55.64c2.6,0,4.11.17,4.49.52s.57,1.85.57,4.55Z"/><path class="cls-1" d="M757.2,146.47a19.29,19.29,0,0,0,5.93-14.16v-28a20.35,20.35,0,0,0-20.24-20.09H659.05V188.09h19.09V152.53l34.11-.13,29.92,35.69H763v-5.34L737.26,152.4h5.63A19.45,19.45,0,0,0,757.2,146.47Zm-74-13.31c-2.71,0-4.23-.13-4.56-.42s-.5-1.78-.5-4.49V108.31c0-2.7.16-4.22.5-4.55s1.85-.52,4.56-.52h55.65c2.6,0,4.07.17,4.41.52s.5,1.85.5,4.55v19.94c0,2.71-.17,4.19-.5,4.49s-1.81.42-4.41.42Z"/><path class="cls-1" d="M876.9,90A19.45,19.45,0,0,0,862.59,84H778.76V188.09h83.83a19.48,19.48,0,0,0,14.31-5.92A19.27,19.27,0,0,0,882.83,168v-63.9A19.29,19.29,0,0,0,876.9,90Zm-13.3,73.87c0,2.7-.19,4.2-.57,4.56s-1.89.5-4.49.5H802.9c-2.7,0-4.22-.17-4.56-.5s-.52-1.86-.52-4.56V108.31c0-2.7.17-4.22.52-4.55s1.86-.52,4.56-.52h55.64c2.6,0,4.1.17,4.49.52s.57,1.85.57,4.55Z"/><path class="cls-1" d="M520.71,218.05a19.32,19.32,0,0,0-14.31-6H422.57V316h19.08V280.41l64.75-.13a19.51,19.51,0,0,0,14.31-5.93,19.31,19.31,0,0,0,5.93-14.17v-28A19.36,19.36,0,0,0,520.71,218.05Zm-13.29,38.09c0,2.68-.2,4.19-.58,4.47s-1.87.44-4.48.44H446.71c-2.7,0-4.22-.14-4.56-.44s-.5-1.79-.5-4.47v-20c0-2.68.15-4.2.5-4.56s1.86-.5,4.56-.5h55.65c2.61,0,4.09.17,4.48.5s.58,1.88.58,4.56Z"/><path class="cls-1" d="M636.79,217.83a19.47,19.47,0,0,0-14.3-5.92H558.73A20.23,20.23,0,0,0,538.65,232v84h19.07V281h65.77v35h19.23V232A19.27,19.27,0,0,0,636.79,217.83Zm-13.3,44.08H557.72V236.18c0-2.68.16-4.2.51-4.56s1.86-.5,4.56-.5h55.64c2.6,0,4.11.17,4.49.5s.57,1.88.57,4.56Z"/><path class="cls-1" d="M744.06,211.91v76l-63.9-76h-21V316h19.09V239.81l64,76.17h21V211.91Z"/><path class="cls-1" d="M877.9,217.83a19.45,19.45,0,0,0-14.3-5.92H779.76V316H863.6a20.25,20.25,0,0,0,20.23-20.09V232A19.27,19.27,0,0,0,877.9,217.83Zm-13.29,73.86c0,2.7-.2,4.22-.58,4.55s-1.87.52-4.48.52H803.9c-2.7,0-4.22-.17-4.56-.52s-.5-1.85-.5-4.55V236.18c0-2.68.17-4.2.5-4.56s1.86-.5,4.56-.5h55.65c2.61,0,4.1.17,4.48.5s.58,1.88.58,4.56Z"/><path class="cls-1" d="M998.48,217.83a19.54,19.54,0,0,0-14.31-5.92H920.42A20.23,20.23,0,0,0,900.31,232v84H919.4V281h65.77v35h19.23V232A19.34,19.34,0,0,0,998.48,217.83Zm-13.31,44.08H919.4V236.18c0-2.68.16-4.2.5-4.56s1.85-.5,4.56-.5h55.65c2.6,0,4.11.17,4.49.5s.57,1.88.57,4.56Z"/><path class="cls-1" d="M1004.39,84.09V138a20.16,20.16,0,0,1-20.23,20.11H962v30h-19.2v-30H920.44A20.16,20.16,0,0,1,900.33,138V84.09h19.09v49.73c0,2.69.12,4.25.48,4.6s1.85.48,4.59.48h55.62c2.63,0,4.12-.19,4.47-.48s.6-1.91.6-4.6V84.09Z"/><path class="cls-1" d="M341.75,246.57A130.87,130.87,0,0,1,220.21,330c-53.56,0-102.37-33.51-121.47-83.54a124,124,0,0,1-5-15.93l-16.08-6.44h0a136,136,0,0,0,7.5,27.56c21.21,55.56,75.49,92.9,135,92.9S334,307.26,355.29,251.76a133.93,133.93,0,0,0,7.5-27.62.06.06,0,0,1,0,0l-16.17,6.48A114.56,114.56,0,0,1,341.75,246.57ZM89.72,137.5,114,124.81c1.23-1.73,2.52-3.45,3.89-5.19A129,129,0,0,1,220.21,70a129.62,129.62,0,0,1,102.36,49.66c1.3,1.74,2.6,3.46,3.82,5.19l24.3,12.69a54.36,54.36,0,0,0,4.25-4.76,46.11,46.11,0,0,0-36.41-74.53,46.4,46.4,0,0,0-32.3,13,145.46,145.46,0,0,0-132.06,0,46.24,46.24,0,0,0-78.42,33.09,45.7,45.7,0,0,0,9.73,28.4A54.24,54.24,0,0,0,89.72,137.5Z"/><path class="cls-2" d="M350.69,137.5l-24.3-12.69H114L89.72,137.5A143.76,143.76,0,0,0,75.6,200a135.71,135.71,0,0,0,2.08,24.13l16.08,6.44,38.61,15.48,5.94,2.39A25.23,25.23,0,0,0,168,240l32-43.4a25.15,25.15,0,0,1,40.51,0L272.54,240a25.2,25.2,0,0,0,29.64,8.43l44.46-17.87,16.17-6.48a145.57,145.57,0,0,0-12.12-86.59ZM147.13,151.31c-3.11.82-6.23,1.47-9.35,2s-6.26,1-9.4,1.37c-2.27.23-4.55.45-6.82.6-2.63,4.26-5.07,8.72-7.41,13.31-1.39,2.67-2.74,5.39-4.09,8.18s-2.67,5.61-4.16,8.57a40.07,40.07,0,0,1-.53-9.77,57.6,57.6,0,0,1,1.45-9.67,60.94,60.94,0,0,1,7.6-18.12,4.92,4.92,0,0,1,3.87-2.3h0c3.16-.2,6.31-.3,9.47-.33s6.33.05,9.5.25,6.34.48,9.53.91a76.51,76.51,0,0,1,9.59,1.94A70.56,70.56,0,0,1,147.13,151.31Z"/><path class="cls-1" d="M261.05,261.18c-11.4,8.56-24.73,15.21-39.24,20.64a4.49,4.49,0,0,1-3.15,0c-14.53-5.43-27.84-12.08-39.26-20.64a4,4,0,0,1,.27-6.48,65.58,65.58,0,0,1,6-3.42,76.24,76.24,0,0,1,69.11,0c2,1,4,2.17,6,3.42A3.94,3.94,0,0,1,261.05,261.18Z"/></svg>