<svg id="Layer_1" data-name="Layer 1" xmlns="http://www.w3.org/2000/svg" viewBox="0 0 4835.03 1506.36"><defs><style>.cls-1{fill:#32aee3;}.cls-2{fill:#231f20;}</style></defs><title>PG logo</title><path class="cls-1" d="M633,1023.44l-75.62-43.23,0-420.87c0-4.65.93-8.15,2.89-11.08h0a18.64,18.64,0,0,1,8.22-6.57l339.84-163a27.61,27.61,0,0,1,14.84-3.57h0a32.2,32.2,0,0,1,13.39,4.05L1252,530.45c3.38,1.62,6.65,3.08,9.51,4.35,22.9,10.27,25,15.18,25,54.79,0,44.95-2,42.16-29.07,57.8l12.76-7.29L1260,645.93c-70.69,33.42-80.8,43.69-146.22,80.36l-94.47,54.81-19.13,11.1L998,793.48h0c-8.67,5-7.92,13.21-7.92,28.24,0,0,.55,228.6.61,232.91,0,2.53,1.54,7.19,3.49,7.91,2.94,1.09,7.32-.78,8.94-1.71,75.77-43.72,130.83-73.14,195.46-110.19l5.18-3.22c7.35-4.2,6.51-8.5,6.43-15.88V775.63l13.4-7.88,51.79-36.46,11.16-7.85V967.3c0,9-.66,14.63-3.3,19.57v0c-2.73,5.09-7,8.34-14,12.41-61.75,35.73-119.82,65.16-180,99.65-50.47,28.92-101.72,58.3-140.32,80.54-12.52,7.21-19.26,10.75-25.41,7.21h-.07c-6-3.51-8.51-10.8-8.51-25.92L914.9,840c0-5.94-.3-9.24-1.46-11.14l-.71-.91c-1.25-2-3.52-3-8.65-6l-.12-.05L685.8,702.79l.08-11.65V613.65l10.6,6.08,60.19,34c44.9,25.82,89.14,51.29,149.82,86,7.75,4.44,12.13,6.78,15.26,7,2.82.17,6.21-1.49,12.22-4.93,76.41-44,136.06-78.3,193.77-111.43v0L1191.24,594l.27-.16c6.74-3.5,6.75-6.69-.08-9.89l-.08,0L939.08,460.82h0c-7.07-3.42-11.41-5.14-15.32-5.07h0c-4.1.11-9.07,2.12-17.36,6.08l-44.92,21.54C787.21,519,712.94,554.6,642.16,588.13c-2.91,1.36-5.17,2.56-6.27,4s-1.62,3.7-1.62,7.87Z"/><path class="cls-2" d="M1554.46,504.34q44.43,0,74.8,29.92t30.36,73.48q0,43.56-30.36,73.48t-74.8,29.92h-54.12v101.2h-60.72v-308Zm0,150q19.35,0,32.12-13.42t12.76-33.22q0-20.24-12.76-33.44t-32.12-13.2h-54.12v93.28Z"/><path class="cls-2" d="M1849.26,592.34H1906v220h-56.76v-26q-25.52,32.13-71.72,32.12-44,0-75.46-33.66t-31.46-82.5q0-48.84,31.46-82.5t75.46-33.66q46.2,0,71.72,32.12ZM1744.54,747q17.16,17.38,43.56,17.38T1831.88,747q17.38-17.37,17.38-44.66t-17.38-44.66q-17.39-17.37-43.78-17.38t-43.56,17.38q-17.16,17.39-17.16,44.66T1744.54,747Z"/><path class="cls-2" d="M2102.26,592.34h62.48l-83.6,220h-64.68l-83.6-220h62.48l53.33,154Z"/><path class="cls-2" d="M2350.42,592.34h56.76v220h-56.76v-26q-25.53,32.13-71.72,32.12-44,0-75.46-33.66t-31.46-82.5q0-48.84,31.46-82.5t75.46-33.66q46.2,0,71.72,32.12ZM2245.7,747q17.16,17.38,43.56,17.38T2333,747q17.37-17.37,17.38-44.66T2333,657.68q-17.39-17.37-43.78-17.38t-43.56,17.38q-17.16,17.39-17.16,44.66T2245.7,747Z"/><path class="cls-2" d="M2581,586.18q36.08,0,59.62,24.2t23.54,66.88V812.34h-56.76v-128q0-22-11.88-33.66T2563.81,639q-22,0-35.2,13.64t-13.2,40.92v118.8h-56.76v-220h56.76V617Q2536.09,586.19,2581,586.18Z"/><path class="cls-2" d="M2764.89,654.82q0,8.8,11.66,14.3a154.55,154.55,0,0,0,28.38,9.68,294.67,294.67,0,0,1,33.44,10.56,65,65,0,0,1,28.38,21.34q11.65,15,11.66,37.4,0,33.89-25.3,52.14T2790,818.5q-67.75,0-92.4-52.36l49.28-27.72Q2756.53,767,2790,767q30.36,0,30.36-18.92,0-8.79-11.66-14.3a167.37,167.37,0,0,0-28.38-9.9,296.05,296.05,0,0,1-33.44-11,68.55,68.55,0,0,1-28.38-20.9q-11.66-14.29-11.66-35.86,0-32.55,24-51.26t59.62-18.7q26.84,0,48.84,12.1A88.45,88.45,0,0,1,2874,632.82l-48.4,26.4q-10.56-22.44-35.2-22.44-11,0-18.26,4.84T2764.89,654.82Z"/><path class="cls-2" d="M3324.53,650.66v23.22q0,64.5-41.28,104.49t-106.64,40q-69.66,0-115.45-45.36t-45.8-110.73q0-65.79,45.37-111.37t112.44-45.58q42.14,0,77,19.14t54.18,50.95l-50.74,29.24q-10.76-18.48-32.46-30.1t-48.38-11.61q-43,0-70.73,28.17t-27.74,71.16q0,42.57,28.17,70.31t74.6,27.73q34.39,0,57-15.26t30.74-41.93H3173.6V650.66Z"/><path class="cls-2" d="M3421.44,630.18q7.92-21.12,26.18-31.68a79.78,79.78,0,0,1,40.7-10.56V651.3q-26-3.07-46.42,10.56t-20.46,45.32V812.34h-56.76v-220h56.76Z"/><path class="cls-2" d="M3700.39,784.84q-33.88,33.66-82.72,33.66t-82.5-33.66q-33.66-33.66-33.66-82.5t33.66-82.5q33.66-33.66,82.5-33.66t82.72,33.66q33.89,33.66,33.88,82.5T3700.39,784.84ZM3575.21,745.9q16.93,17.16,42.46,17.16t42.68-17.16q17.16-17.16,17.16-43.56t-17.16-43.56q-17.16-17.16-42.68-17.16t-42.46,17.16q-16.93,17.16-16.94,43.56T3575.21,745.9Z"/><path class="cls-2" d="M3919.51,592.34h56.76v220h-56.76V787.7q-20.69,30.81-65.56,30.8-36.09,0-59.62-24.2t-23.54-66.88V592.34h56.76v128q0,22,11.88,33.66t31.68,11.66q22,0,35.2-13.64t13.2-40.92Z"/><path class="cls-2" d="M4156.23,586.18q44.43,0,75.9,33.66t31.46,82.5q0,48.84-31.46,82.5t-75.9,33.66q-46.2,0-71.28-32.12v114h-56.76v-308H4085v26Q4110,586.18,4156.23,586.18ZM4102.11,747q17.16,17.38,43.56,17.38T4189.45,747q17.37-17.37,17.38-44.66t-17.38-44.66q-17.39-17.37-43.78-17.38t-43.56,17.38Q4085,675.07,4085,702.34T4102.11,747Z"/><path class="cls-2" d="M1487.82,917.34q19.4,0,32.3,12.9t12.9,32.1q0,19-12.9,32t-32.3,13h-32.2v50H1437v-140Zm0,72.6A25.51,25.51,0,0,0,1507,982q7.59-7.89,7.6-19.7,0-12-7.6-19.8t-19.2-7.8h-32.2v55.2Z"/><path class="cls-2" d="M1628.42,957.34h17.4v100h-17.4v-17.2q-13,19.8-37.8,19.8-21,0-35.8-15.3t-14.8-37.3q0-22,14.8-37.3t35.8-15.3q24.8,0,37.8,19.8Zm-35.6,85.8q15.2,0,25.4-10.3t10.2-25.5q0-15.2-10.2-25.5t-25.4-10.3a34.05,34.05,0,0,0-25.2,10.3q-10.2,10.3-10.2,25.5t10.2,25.5A34.05,34.05,0,0,0,1592.82,1043.14Z"/><path class="cls-2" d="M1687,984q0,5.67,5.89,9.1a63.58,63.58,0,0,0,14,5.81l16.39,4.82a28.68,28.68,0,0,1,14,9.08q5.71,6.64,5.72,17.09,0,13.61-10.5,21.8t-26.9,8.2q-14.61,0-25-6.4a35.68,35.68,0,0,1-14.8-17l15-8.6a21.1,21.1,0,0,0,9,11.4,28.79,28.79,0,0,0,15.8,4.2q8.6,0,14.2-3.29t5.6-10.29q0-5.79-5.81-9.28a61.08,61.08,0,0,0-13.95-5.94l-16.4-4.92a30.44,30.44,0,0,1-14-8.88q-5.81-6.39-5.8-16.4a26.62,26.62,0,0,1,10.1-21.4q10.1-8.4,25.3-8.4a42.51,42.51,0,0,1,21.7,5.5,35.28,35.28,0,0,1,14.3,15.3l-14.6,8.2q-5.4-12.79-21.4-12.8a22.39,22.39,0,0,0-12.6,3.42A10.93,10.93,0,0,0,1687,984Z"/><path class="cls-2" d="M1772.42,984q0,5.67,5.89,9.1a63.58,63.58,0,0,0,14,5.81l16.39,4.82a28.68,28.68,0,0,1,14,9.08q5.71,6.64,5.72,17.09,0,13.61-10.5,21.8t-26.9,8.2q-14.6,0-25-6.4a35.73,35.73,0,0,1-14.8-17l15-8.6a21.1,21.1,0,0,0,9,11.4,28.79,28.79,0,0,0,15.8,4.2q8.6,0,14.2-3.29t5.6-10.29q0-5.79-5.81-9.28a61.08,61.08,0,0,0-14-5.94l-16.4-4.92a30.44,30.44,0,0,1-14-8.88q-5.8-6.39-5.8-16.4a26.62,26.62,0,0,1,10.1-21.4q10.1-8.4,25.3-8.4a42.48,42.48,0,0,1,21.7,5.5,35.28,35.28,0,0,1,14.3,15.3l-14.6,8.2q-5.4-12.79-21.4-12.8a22.44,22.44,0,0,0-12.6,3.42A10.93,10.93,0,0,0,1772.42,984Z"/><path class="cls-2" d="M1856.82,939.14a11.41,11.41,0,0,1-8.4-3.4,11.17,11.17,0,0,1-3.4-8.2,11.49,11.49,0,0,1,3.4-8.3,11.27,11.27,0,0,1,8.4-3.5,11,11,0,0,1,8.2,3.5,11.49,11.49,0,0,1,3.4,8.3,11.61,11.61,0,0,1-11.6,11.6Zm-8.8,118.2v-100h17.4v100Z"/><path class="cls-2" d="M1976.42,1044.74q-15.4,15.19-37.4,15.2t-37.3-15.2q-15.3-15.2-15.3-37.4t15.3-37.4q15.3-15.2,37.3-15.2t37.4,15.2q15.39,15.19,15.4,37.4T1976.42,1044.74Zm-37.4-1.8q15,0,25.2-10.2t10.2-25.4q0-15.2-10.2-25.4t-25.2-10.2a34,34,0,0,0-25,10.2q-10.2,10.2-10.2,25.4t10.2,25.4A34,34,0,0,0,1939,1042.94Z"/><path class="cls-2" d="M2062.22,954.74q17.59,0,28.2,11.1t10.59,30.1v61.4h-17.39v-60.4q0-12.2-6.61-18.9t-18.19-6.7q-13,0-21,8.1t-8,24.9v53h-17.4v-100h17.4v14.4Q2040.41,954.74,2062.22,954.74Z"/><path class="cls-2" d="M2229.61,974.14H2203v54.2q0,7.41,2.9,10.5t8.9,3.2q6,.11,14.8-.3v15.6q-22.8,3-33.39-3.7t-10.61-25.3v-54.2h-19.8v-16.8h19.8v-22.8l17.4-5.2v28h26.6Z"/><path class="cls-2" d="M2329.61,1044.74q-15.41,15.19-37.4,15.2t-37.3-15.2q-15.3-15.2-15.3-37.4t15.3-37.4q15.3-15.2,37.3-15.2t37.4,15.2q15.41,15.19,15.4,37.4T2329.61,1044.74Zm-37.4-1.8q15,0,25.2-10.2t10.2-25.4q0-15.2-10.2-25.4t-25.2-10.2a34,34,0,0,0-25,10.2q-10.2,10.2-10.2,25.4t10.2,25.4A34,34,0,0,0,2292.21,1042.94Z"/><path class="cls-2" d="M2417.41,917.34H2436v140h-18.6Z"/><path class="cls-2" d="M2514,954.74q17.59,0,28.2,11.1t10.6,30.1v61.4h-17.4v-60.4q0-12.2-6.6-18.9t-18.2-6.7q-13,0-21,8.1t-8,24.9v53h-17.4v-100h17.4v14.4Q2492.2,954.74,2514,954.74Z"/><path class="cls-2" d="M2626.81,954.74q17.59,0,28.2,11.1t10.6,30.1v61.4h-17.4v-60.4q0-12.2-6.6-18.9t-18.2-6.7q-13,0-21,8.1t-8,24.9v53H2577v-100h17.4v14.4Q2605,954.74,2626.81,954.74Z"/><path class="cls-2" d="M2774.21,1044.74q-15.4,15.19-37.4,15.2t-37.3-15.2q-15.3-15.2-15.3-37.4t15.3-37.4q15.3-15.2,37.3-15.2t37.4,15.2q15.39,15.19,15.4,37.4T2774.21,1044.74Zm-37.4-1.8q15,0,25.2-10.2t10.2-25.4q0-15.2-10.2-25.4t-25.2-10.2a34,34,0,0,0-25,10.2q-10.2,10.2-10.2,25.4t10.2,25.4A34,34,0,0,0,2736.81,1042.94Z"/><path class="cls-2" d="M2876.21,957.34H2895l-40,100h-20.4l-40-100h18.8l31.4,81.19Z"/><path class="cls-2" d="M2988.61,957.34H3006v100h-17.4v-17.2q-13,19.8-37.8,19.8-21,0-35.8-15.3t-14.8-37.3q0-22,14.8-37.3t35.8-15.3q24.8,0,37.8,19.8Zm-35.6,85.8q15.19,0,25.4-10.3t10.2-25.5q0-15.2-10.2-25.5t-25.4-10.3a34.05,34.05,0,0,0-25.2,10.3q-10.2,10.3-10.2,25.5t10.2,25.5A34.05,34.05,0,0,0,2953,1043.14Z"/><path class="cls-2" d="M3086.81,974.14h-26.6v54.2q0,7.41,2.9,10.5t8.9,3.2q6,.11,14.8-.3v15.6q-22.8,3-33.4-3.7t-10.6-25.3v-54.2H3023v-16.8h19.8v-22.8l17.4-5.2v28h26.6Z"/><path class="cls-2" d="M3114.61,1015.34q2.59,13.41,12.3,20.8t23.9,7.4q19.8,0,28.8-14.6l14.8,8.4q-14.61,22.61-44,22.6-23.8,0-38.7-14.9t-14.9-37.7q0-22.59,14.6-37.6t37.8-15q22,0,35.9,15.5t13.9,37.3a52.52,52.52,0,0,1-.6,7.8Zm34.6-44.2q-14,0-23.2,7.9t-11.4,21.1h66.8q-2.2-14.19-11.2-21.6A32.09,32.09,0,0,0,3149.21,971.14Z"/></svg>