<svg xmlns="http://www.w3.org/2000/svg" viewBox="0 0 502 88">
  <path fill="#5068d8" d="M7.851562 62.242188V17.171875h16.15625c3.773438 0 7.011719.601563 9.714844 1.800781 2.703125 1.203125 4.785156 2.941406 6.246094 5.214844 1.457031 2.234375 2.1875 4.960938 2.1875 8.179688 0 3.132812-.730469 5.835937-2.1875 8.113281-1.460938 2.273437-3.542969 4.011719-6.246094 5.214843C31.019531 46.898438 27.78125 47.5 24.007812 47.5H9.652344l1.480468-1.546875v16.289063Zm3.28125-16.097657-1.480468-1.609375h14.355468c4.847657 0 8.515626-1.050781 11.003907-3.152344 2.53125-2.148437 3.796875-5.152343 3.796875-9.015624 0-3.90625-1.265625-6.910157-3.796875-9.015626-2.488281-2.144531-6.15625-3.21875-11.003907-3.21875H9.652344l1.480468-1.609374Zm41.695313 16.097657V28.632812h3.21875v33.609376ZM54.4375 20.453125c-.730469 0-1.351562-.257813-1.867188-.769531-.515624-.515625-.769531-1.117188-.769531-1.804688 0-.730468.253907-1.351562.769531-1.867187.515626-.515625 1.136719-.773438 1.867188-.773438.773438 0 1.394531.257813 1.867188.773438.515624.472656.773437 1.074219.773437 1.804687 0 .726563-.257813 1.351563-.773437 1.867188-.472657.511718-1.09375.769531-1.867188.769531ZM82.933594 62.5c-3.261719 0-6.179688-.726562-8.753906-2.1875-2.53125-1.460938-4.546876-3.476562-6.050782-6.054688-1.457031-2.574218-2.1875-5.515624-2.1875-8.820312 0-3.347656.730469-6.308594 2.1875-8.886719 1.503906-2.574219 3.519532-4.570312 6.050782-5.988281 2.574218-1.457031 5.492187-2.1875 8.753906-2.1875 2.703125 0 5.148437.515625 7.335937 1.546875 2.230469 1.027344 4.03125 2.574219 5.40625 4.632813l-2.382812 1.738281c-1.199219-1.714844-2.703125-2.980469-4.503907-3.796875-1.800781-.816406-3.753906-1.222656-5.855468-1.222656-2.617188 0-4.980469.601562-7.082032 1.800781-2.058593 1.160156-3.6875 2.8125-4.890624 4.957031-1.15625 2.105469-1.738282 4.574219-1.738282 7.40625 0 2.832031.582032 5.324219 1.738282 7.46875 1.203124 2.105469 2.832031 3.757812 4.890624 4.960938 2.101563 1.15625 4.464844 1.738281 7.082032 1.738281 2.101562 0 4.054687-.410157 5.855468-1.226563 1.800782-.8125 3.304688-2.082031 4.503907-3.796875l2.382812 1.738281c-1.375 2.058594-3.175781 3.605469-5.40625 4.636719C88.082031 61.988281 85.636719 62.5 82.933594 62.5Zm32.535156 0c-2.960938 0-5.234375-.8125-6.820312-2.445312-1.546876-1.632813-2.320313-3.863282-2.320313-6.695313V21.292969h3.21875v31.742187c0 2.148438.535156 3.800782 1.609375 4.960938 1.074219 1.15625 2.617188 1.738281 4.632812 1.738281 2.105469 0 3.839844-.625 5.214844-1.867187l1.351563 2.25c-.859375.816406-1.910157 1.417968-3.152344 1.804687C118 62.308594 116.753906 62.5 115.46875 62.5Zm-15.316406-31.097656v-2.769532h20.078125v2.769532Zm27.714844 15v-2.894532h16.542968v2.894532Zm48.054687 16.164062c-3.347656 0-6.457031-.558594-9.332031-1.675781-2.832032-1.15625-5.320313-2.769531-7.464844-4.828125-2.101562-2.101562-3.734375-4.527344-4.890625-7.277344-1.160156-2.789062-1.738281-5.816406-1.738281-9.078125 0-3.261719.578125-6.265625 1.738281-9.015625 1.15625-2.789062 2.789063-5.214844 4.890625-7.273437 2.144531-2.105469 4.632812-3.714844 7.464844-4.832031 2.875-1.15625 5.984375-1.738282 9.332031-1.738282 3.347656 0 6.4375.582032 9.269531 1.738282 2.875 1.117187 5.363282 2.707031 7.464844 4.765624 2.101562 2.0625 3.730469 4.488282 4.890625 7.277344 1.203125 2.746094 1.800781 5.773438 1.800781 9.078125 0 3.304688-.597656 6.351563-1.800781 9.144531C196.386719 51.597656 194.757812 54 192.65625 56.0625c-2.101562 2.058594-4.589844 3.671875-7.464844 4.828125-2.832031 1.117187-5.921875 1.675781-9.269531 1.675781Zm0-3.027344c2.875 0 5.535156-.492187 7.980469-1.480468 2.445312-.988282 4.570312-2.382813 6.371094-4.183594 1.804687-1.804688 3.199218-3.90625 4.183593-6.3125 1.03125-2.402344 1.546875-5.023438 1.546875-7.855469 0-2.875-.515625-5.496093-1.546875-7.855469-.984375-2.402343-2.378906-4.507812-4.183593-6.308593-1.800782-1.804688-3.925782-3.199219-6.371094-4.1875-2.445313-.988281-5.105469-1.480469-7.980469-1.480469s-5.535156.492188-7.980469 1.480469c-2.445312.988281-4.589844 2.382812-6.4375 4.1875-1.800781 1.800781-3.214844 3.90625-4.246094 6.308593-.988281 2.359376-1.480468 4.980469-1.480468 7.855469 0 2.832031.492187 5.453125 1.480468 7.855469 1.03125 2.40625 2.445313 4.507812 4.246094 6.3125 1.847656 1.800781 3.992188 3.195312 6.4375 4.183594 2.445313.988281 5.105469 1.480468 7.980469 1.480468ZM207.4375 46.402344v-2.894532h16.539062v2.894532Zm28.375 15.839844V17.171875h16.152344c3.777344 0 7.015625.601563 9.71875 1.800781 2.703125 1.203125 4.785156 2.941406 6.242187 5.214844 1.460938 2.234375 2.1875 4.960938 2.1875 8.179688 0 3.132812-.726562 5.835937-2.1875 8.113281-1.457031 2.273437-3.539062 4.011719-6.242187 5.214843-2.703125 1.203126-5.941406 1.804688-9.71875 1.804688h-14.351563l1.480469-1.546875v16.289063Zm3.28125-16.097657-1.480469-1.609375h14.351563c4.847656 0 8.515625-1.050781 11.007812-3.152344 2.53125-2.148437 3.796875-5.152343 3.796875-9.015624 0-3.90625-1.265625-6.910157-3.796875-9.015626-2.492187-2.144531-6.160156-3.21875-11.007812-3.21875h-14.351563l1.480469-1.609374Zm39.996094 16.097657V28.632812h3.089844v9.207032l-.320313-1.03125c.941406-2.703125 2.53125-4.785156 4.761719-6.246094 2.230468-1.457031 5.019531-2.1875 8.367187-2.1875v3.15625h-.386719c-.128906-.042969-.257812-.066406-.386718-.066406-3.734375 0-6.648438 1.179687-8.753906 3.542968-2.101563 2.316407-3.152344 5.558594-3.152344 9.722657v17.511719Zm38.09375.257812c-3.386719 0-6.390625-.726562-9.007813-2.1875-2.574219-1.460938-4.613281-3.476562-6.117187-6.054688-1.457032-2.574218-2.1875-5.515624-2.1875-8.820312 0-3.347656.6875-6.289062 2.058594-8.820312 1.417968-2.578126 3.347656-4.59375 5.792968-6.054688 2.445313-1.457031 5.191406-2.1875 8.238282-2.1875 3.046874 0 5.773437.707031 8.175781 2.125 2.445312 1.417969 4.355469 3.414062 5.726562 5.988281 1.414063 2.53125 2.125 5.472657 2.125 8.820313 0 .128906-.023437.28125-.066406.453125v.449219h-29.667969v-2.511719h27.929688l-1.285156 1.222656c.042968-2.617187-.515626-4.957031-1.671876-7.015625-1.117187-2.105469-2.640624-3.738281-4.570312-4.894531-1.933594-1.203125-4.164062-1.804688-6.695312-1.804688-2.488282 0-4.71875.601563-6.691407 1.804688-1.933593 1.15625-3.453125 2.789062-4.570312 4.894531-1.117188 2.058594-1.671875 4.417969-1.671875 7.082031v.578125c0 2.746094.597656 5.195313 1.800781 7.339844 1.242187 2.105469 2.9375 3.757812 5.082031 4.960938 2.148438 1.15625 4.59375 1.738281 7.339844 1.738281 2.144531 0 4.140625-.386719 5.984375-1.160157 1.886719-.773437 3.476563-1.953124 4.761719-3.542968l1.867187 2.125c-1.457031 1.804687-3.304687 3.175781-5.535156 4.121094-2.1875.902343-4.570313 1.351562-7.144531 1.351562Zm33.253906 0c-2.789062 0-5.40625-.40625-7.851562-1.222656-2.402344-.816406-4.269532-1.84375-5.601563-3.089844l1.480469-2.574219c1.289062 1.113281 3.003906 2.082031 5.148437 2.894531 2.148438.773438 4.464844 1.160157 6.953125 1.160157 3.515625 0 6.046875-.578125 7.59375-1.738281 1.542969-1.160157 2.316406-2.683594 2.316406-4.570313 0-1.375-.40625-2.449219-1.222656-3.222656-.773437-.8125-1.824218-1.4375-3.152344-1.867188-1.332031-.425781-2.789062-.769531-4.378906-1.027343-1.585937-.300782-3.171875-.625-4.761718-.96875-1.585938-.339844-3.046876-.835938-4.375-1.480469-1.332032-.644531-2.402344-1.523438-3.21875-2.640625-.773438-1.15625-1.160157-2.679688-1.160157-4.570313 0-1.714843.472657-3.261719 1.417969-4.636719.945312-1.371093 2.359375-2.46875 4.246094-3.28125 1.890625-.859374 4.25-1.289062 7.082031-1.289062 2.101563 0 4.203125.300781 6.304687.902344 2.144532.601562 3.882813 1.394531 5.214844 2.382812l-1.480468 2.574219c-1.417969-1.074219-3.003907-1.847656-4.761719-2.316406-1.761719-.472657-3.542969-.710938-5.34375-.710938-3.261719 0-5.664063.601563-7.207031 1.804688-1.503907 1.199219-2.253907 2.703125-2.253907 4.507812 0 1.414063.386719 2.550781 1.160157 3.410157.8125.816406 1.886718 1.460937 3.21875 1.933593 1.328124.429688 2.789062.792969 4.375 1.09375 1.585937.257813 3.175781.558594 4.761718.902344 1.589844.34375 3.046875.835937 4.375 1.480469 1.332032.601562 2.382813 1.460937 3.15625 2.574218.8125 1.074219 1.222656 2.535157 1.222656 4.378907 0 1.847656-.515624 3.457031-1.546874 4.828125-.984376 1.375-2.464844 2.449218-4.4375 3.222656C355.734375 62.113281 353.3125 62.5 350.4375 62.5Zm35.882812 0c-3.390624 0-6.394531-.726562-9.011718-2.1875-2.574219-1.460938-4.613282-3.476562-6.113282-6.054688-1.460937-2.574218-2.1875-5.515624-2.1875-8.820312 0-3.347656.683594-6.289062 2.058594-8.820312 1.414063-2.578126 3.347656-4.59375 5.792969-6.054688 2.445313-1.457031 5.191406-2.1875 8.238281-2.1875 3.042969 0 5.769532.707031 8.171875 2.125 2.445313 1.417969 4.355469 3.414062 5.726563 5.988281 1.417968 2.53125 2.125 5.472657 2.125 8.820313 0 .128906-.019532.28125-.0625.453125v.449219h-29.671875v-2.511719h27.933593l-1.289062 1.222656c.042969-2.617187-.515625-4.957031-1.671875-7.015625-1.117187-2.105469-2.640625-3.738281-4.570313-4.894531-1.929687-1.203125-4.160156-1.804688-6.691406-1.804688-2.488281 0-4.722656.601563-6.695312 1.804688-1.929688 1.15625-3.453125 2.789062-4.570313 4.894531-1.113281 2.058594-1.671875 4.417969-1.671875 7.082031v.578125c0 2.746094.601563 5.195313 1.800782 7.339844 1.246093 2.105469 2.941406 3.757812 5.085937 4.960938 2.144531 1.15625 4.589844 1.738281 7.335937 1.738281 2.144532 0 4.140626-.386719 5.984376-1.160157 1.890624-.773437 3.476562-1.953124 4.765624-3.542968l1.863282 2.125c-1.457032 1.804687-3.300782 3.175781-5.535156 4.121094-2.1875.902343-4.566407 1.351562-7.140626 1.351562Zm24.757813-.257812V28.632812h3.089844v9.207032l-.324219-1.03125c.945312-2.703125 2.53125-4.785156 4.765625-6.246094 2.230469-1.457031 5.019531-2.1875 8.363281-2.1875v3.15625h-.382812c-.128906-.042969-.257813-.066406-.386719-.066406-3.734375 0-6.652344 1.179687-8.753906 3.542968-2.101563 2.316407-3.152344 5.558594-3.152344 9.722657v17.511719Zm34.765625 0-15.125-33.609376h3.414062l14.15625 31.808594h-1.542968l14.289062-31.808594h3.28125l-15.1875 33.609376ZM484.050781 62.5c-3.386719 0-6.390625-.726562-9.007812-2.1875-2.574219-1.460938-4.613281-3.476562-6.113281-6.054688-1.460938-2.574218-2.191407-5.515624-2.191407-8.820312 0-3.347656.6875-6.289062 2.0625-8.820312 1.414063-2.578126 3.34375-4.59375 5.789063-6.054688 2.449218-1.457031 5.195312-2.1875 8.238281-2.1875 3.046875 0 5.773437.707031 8.175781 2.125 2.445313 1.417969 4.355469 3.414062 5.726563 5.988281 1.417969 2.53125 2.125 5.472657 2.125 8.820313 0 .128906-.023438.28125-.066407.453125v.449219h-29.667968v-2.511719h27.933594l-1.289063 1.222656c.042969-2.617187-.515625-4.957031-1.671875-7.015625-1.117188-2.105469-2.640625-3.738281-4.570312-4.894531-1.929688-1.203125-4.164063-1.804688-6.695313-1.804688-2.488281 0-4.71875.601563-6.691406 1.804688-1.929688 1.15625-3.453125 2.789062-4.570313 4.894531-1.113281 2.058594-1.671875 4.417969-1.671875 7.082031v.578125c0 2.746094.597657 5.195313 1.800781 7.339844 1.246094 2.105469 2.9375 3.757812 5.085938 4.960938 2.144531 1.15625 4.589844 1.738281 7.335938 1.738281 2.144531 0 4.140624-.386719 5.984374-1.160157 1.886719-.773437 3.476563-1.953124 4.761719-3.542968l1.867188 2.125c-1.457031 1.804687-3.304688 3.175781-5.535157 4.121094-2.1875.902343-4.570312 1.351562-7.144531 1.351562Zm0 0"/>
  <path fill="none" stroke="#5068d8" stroke-width="1.5" d="M59.499642 5.499911h10.34056c.396943 0 .799349-.032759 1.163517-.187455 1.624191-.691584 2.352528-2.362305 5.620939-2.811835h10.1257c.996 0 3.22471.469549 4.972718 2.242188.442465.447709 1.023313.757102 1.651504.757102h2.376198c.748366 0 2.24874.400391 2.24874 2.000133v4.999423" transform="scale(2.145299 2.146341)"/>
  <path fill="#5068d8" d="M55.894531 81.136719c-.050781.394531-.152343.757812-.304687 1.089843-.152344.332032-.351563.613282-.59375.847657-.246094.238281-.535156.425781-.875.558593-.332032.128907-.703125.191407-1.113282.191407-.351562 0-.671874-.046875-.960937-.144531-.285156-.101563-.539063-.242188-.761719-.417969-.230468-.175781-.425781-.382813-.589844-.621094-.160156-.238281-.292968-.5-.398437-.78125-.109375-.28125-.191406-.578125-.246094-.886719-.050781-.308594-.078125-.621094-.082031-.9375V78.84375c.003906-.320312.03125-.632812.082031-.941406.054688-.308594.136719-.605469.246094-.886719.105469-.28125.238281-.539063.398437-.78125.164063-.242187.359376-.449219.589844-.625.222656-.175781.476563-.3125.761719-.410156.285156-.101563.605469-.15625.960937-.15625.425782 0 .808594.070312 1.144532.203125.335937.128906.625.3125.867187.550781.242188.242187.4375.53125.582031.867187.148438.335938.246094.707032.292969 1.117188h-1.085937c-.035156-.257812-.09375-.5-.179688-.722656-.085937-.222656-.203125-.417969-.347656-.585938-.144531-.171875-.324219-.300781-.535156-.394531-.207032-.097656-.453125-.148437-.738282-.148437-.257812 0-.488281.042968-.6875.128906-.195312.082031-.363281.199218-.503906.34375-.144531.144531-.265625.3125-.363281.503906-.09375.191406-.167969.394531-.226563.609375-.058593.214844-.101562.4375-.128906.664063-.023437.222656-.035156.4375-.035156.652343v1.203125c0 .210938.011719.429688.035156.65625.027344.222656.070313.441406.128906.65625.058594.21875.132813.425782.226563.617188.09375.191406.214844.359375.359375.503906.144531.148438.3125.265625.507812.351562.195313.082032.425782.125.6875.125.285157 0 .53125-.046874.738282-.136718.210937-.089844.390625-.214844.535156-.378906.144531-.164063.261719-.351563.347656-.570313.085938-.222656.144532-.464844.179688-.722656ZM61.75 83.707031c-.042969-.082031-.078125-.183593-.105469-.304687-.023437-.125-.042969-.253906-.054687-.386719-.109375.109375-.230469.210937-.371094.308594-.132812.097656-.277344.183593-.4375.261719-.164062.074218-.339844.132812-.523438.175781-.183593.042969-.378906.0625-.585937.0625-.335937 0-.640625-.046875-.914063-.144531-.269531-.097657-.5-.234376-.6875-.402344-.191406-.164063-.339843-.359375-.445312-.585938-.101562-.230468-.152344-.480468-.152344-.746094 0-.347656.066406-.652343.203125-.914062.144531-.261719.339844-.480469.59375-.65625.253907-.171875.558594-.300781.914063-.386719.363281-.089843.761718-.128906 1.203125-.128906h1.1875v-.5c0-.191406-.035157-.363281-.105469-.515625-.070312-.15625-.171875-.285156-.300781-.394531-.128907-.105469-.289063-.1875-.476563-.246094-.183594-.058594-.390625-.089844-.621094-.089844-.214843 0-.40625.027344-.582031.082031-.167969.054688-.308593.128907-.425781.21875-.117188.089844-.210938.195313-.277344.324219-.0625.121094-.09375.246094-.09375.378907h-1.089844c.003907-.230469.0625-.457032.175782-.679688.117187-.222656.285156-.425781.503906-.605469.214844-.175781.476562-.320312.785156-.429687.3125-.109375.667969-.164063 1.0625-.164063.359375 0 .695313.046875 1.003906.136719.308594.085938.578126.21875.804688.394531.222656.179688.398438.402344.527344.667969.128906.265625.191406.578125.191406.933594v2.953125c0 .210937.019531.433593.058594.671875.039062.234375.09375.441406.164062.617187v.09375Zm-1.917969-.828125c.210938 0 .40625-.027344.589844-.082031.183594-.054687.351563-.125.503906-.214844.148438-.089843.277344-.191406.390625-.308593.109375-.117188.195313-.238282.257813-.363282V80.625H60.5625c-.375 0-.703125.035156-.984375.101562-.277344.0625-.5.160157-.664063.292969-.117187.09375-.207031.207031-.269531.335938-.058593.128906-.085937.273437-.085937.4375 0 .15625.023437.300781.074218.433593.054688.136719.136719.25.242188.34375.105469.097657.238281.171876.398438.226563.160156.054687.347656.082031.558593.082031Zm4.957031 3.269532v-8.792969h.988282l.054687.695312c.085938-.109375.179688-.207031.28125-.292969.101563-.089843.210938-.167968.328125-.230468.164063-.09375.347656-.164063.546875-.210938.203125-.050781.417969-.078125.648438-.078125.40625 0 .769531.082031 1.082031.242188.3125.160156.574219.382812.785156.667969.210938.285156.371094.628906.480469 1.027343.109375.394531.164063.832031.164063 1.304688v.121093c0 .453126-.054688.878907-.164063 1.273438-.109375.390625-.269531.734375-.480469 1.023438-.210937.289062-.472656.515624-.785156.679687-.308594.164063-.664062.246094-1.0625.246094-.242188 0-.46875-.023438-.679688-.074219-.207031-.050781-.394531-.125-.566406-.21875-.101562-.058594-.195312-.125-.285156-.195312-.089844-.074219-.175781-.152344-.253906-.238282v3.050782Zm4.273438-5.667969c0-.308594-.035156-.601563-.105469-.882813-.066406-.28125-.167969-.527344-.308593-.742187-.144532-.214844-.328126-.382813-.546876-.507813-.21875-.125-.480468-.1875-.785156-.1875-.167968 0-.324218.019532-.46875.058594-.140625.039062-.269531.097656-.382812.171875-.125.074219-.238282.164063-.335938.273437-.097656.113282-.183594.234376-.257812.367188v3.054688c.066406.117187.144531.226562.230468.332031.085938.101562.183594.1875.292969.257812.125.082031.265625.144531.417969.191407.15625.046874.328125.070312.515625.070312.300781 0 .558594-.0625.78125-.1875.21875-.128906.398437-.300781.539063-.515625.140624-.214844.242187-.464844.308593-.746094.070313-.28125.105469-.578125.105469-.886719Zm5.515625-4.660157v1.535157h2.417969v.839843h-2.417969v3.453126c0 .246093.03125.449218.09375.609374.0625.160157.148437.289063.257813.382813.109374.097656.234374.164063.375.203125.144531.039062.296874.058594.457031.058594.117187 0 .238281-.003906.363281-.015625.125-.015625.25-.035157.371094-.054688.117187-.019531.226562-.039062.328125-.058593.105469-.023438.191406-.042969.257812-.058594l.152344.769531c-.089844.054687-.199219.105469-.328125.148437-.128906.039063-.269531.070313-.421875.097657-.152344.03125-.316406.054687-.488281.070312-.167969.015625-.335938.023438-.503906.023438-.28125 0-.546876-.039063-.792969-.117188-.242188-.082031-.453125-.210937-.632813-.386719-.179687-.171874-.320312-.394531-.425781-.667968-.101563-.277344-.152344-.613282-.152344-1.003906v-3.453126h-1.667969v-.839843h1.667969v-1.535157Zm8.828125 7.886719-.066406-.875c-.210938.3125-.472656.558594-.789063.734375-.316406.171875-.683593.257813-1.097656.257813-.332031 0-.632813-.050781-.902344-.152344-.269531-.105469-.503906-.269531-.695312-.488281-.191407-.21875-.339844-.496094-.445313-.832032-.101562-.339843-.152344-.746093-.152344-1.222656v-3.773437h1.085938v3.789062c0 .34375.027344.628907.082031.855469.054688.226562.136719.40625.246094.539062.109375.136719.242187.234376.398437.289063.160157.054687.34375.082031.550782.082031.246094 0 .460937-.027344.652344-.082031.191406-.058594.359374-.140625.5-.242187.117187-.082032.21875-.179688.304687-.292969.089844-.117188.164063-.246094.222656-.382813v-4.554687h1.089844v6.351562Zm7.191406-6.46875c.199219 0 .40625.015625.621094.042969.21875.027344.382812.0625.492188.109375l-.144532 1.0625c-.210937-.046875-.414062-.078125-.605468-.097656-.1875-.023438-.382813-.035157-.59375-.035157-.265626 0-.503907.03125-.71875.097657-.214844.0625-.402344.15625-.5625.285156-.144532.109375-.273438.242187-.382813.402344-.105469.15625-.195313.332031-.265625.527343v4.074219h-1.089844v-6.351562h1.03125l.046875.851562.007813.160157c.257812-.347657.566406-.621094.925781-.820313.363281-.207031.777344-.308594 1.238281-.308594Zm5.859375 6.585938c-.445312 0-.855469-.074219-1.230469-.226563-.371093-.15625-.691406-.367187-.957031-.640625-.265625-.273437-.472656-.597656-.621093-.976562-.148438-.375-.222657-.78125-.222657-1.226563v-.246094c0-.511718.082031-.96875.246094-1.371093.164063-.410157.382813-.753907.65625-1.035157.269531-.277343.578125-.488281.921875-.640624.347656-.148438.703125-.222657 1.066406-.222657.457032 0 .855469.082031 1.199219.242188.34375.15625.628906.375.855469.652343.226562.28125.394531.609376.503906.992188.113281.378906.171875.789062.171875 1.230469v.488281h-4.535156v.039062c.027343.3125.085937.582032.179687.816407.097656.234375.230469.441406.398438.625.171875.191406.378906.339843.625.449219.242187.109374.507812.164062.800781.164062.386719 0 .730469-.078125 1.035156-.234375.300781-.15625.550781-.363281.75-.621094l.660157.515625c-.210938.320313-.527344.605469-.949219.855469-.417969.25-.9375.371094-1.554688.371094Zm-.140625-5.691407c-.21875 0-.425781.039063-.621094.121094-.195312.078125-.371093.195313-.527343.347656-.15625.15625-.289063.347657-.398438.574219-.105469.222657-.179687.480469-.222656.777344h3.414063v-.054687c0-.195313-.039063-.40625-.113282-.628907-.074218-.226562-.175781-.421875-.308594-.585937-.132812-.164063-.304687-.296875-.507812-.398438-.199219-.101562-.4375-.152344-.714844-.152344Zm12.957032-2.96875 1.390624 4.269532 1.503907-4.269532h1.347656v8.542969h-1.054687v-3.410156l.085937-3.566406-1.578125 4.601562h-.621094l-1.449218-4.480469.089843 3.445313v3.410156h-1.054687v-8.542969Zm8.832031 8.660157c-.449219 0-.859375-.074219-1.234375-.226563-.371094-.15625-.6875-.367187-.957032-.640625-.265624-.273437-.472656-.597656-.621093-.976562-.148438-.375-.222657-.78125-.222657-1.226563v-.246094c0-.511718.082032-.96875.246094-1.371093.164063-.410157.382813-.753907.65625-1.035157.269532-.277343.578125-.488281.921875-.640624.347657-.148438.703125-.222657 1.070313-.222657.457031 0 .855468.082031 1.195312.242188.34375.15625.628906.375.855469.652343.226563.28125.394531.609376.503906.992188.113281.378906.171875.789062.171875 1.230469v.488281h-4.535156v.039062c.027344.3125.085938.582032.183594.816407s.230468.441406.398437.625c.171875.191406.378907.339843.621094.449219.242187.109374.511719.164062.804687.164062.386719 0 .730469-.078125 1.03125-.234375.300782-.15625.550782-.363281.75-.621094l.664063.515625c-.210937.320313-.527344.605469-.949219.855469s-.9375.371094-1.554687.371094Zm-.140625-5.691407c-.222656 0-.429688.039063-.625.121094-.195313.078125-.371094.195313-.527344.347656-.15625.15625-.289062.347657-.398438.574219-.105468.222657-.179687.480469-.222656.777344h3.414063v-.054687c0-.195313-.039063-.40625-.113281-.628907-.074219-.226562-.175782-.421875-.308594-.585937-.132813-.164063-.300782-.296875-.503906-.398438-.199219-.101562-.4375-.152344-.714844-.152344Zm5.046875-.777343.03125.601562c.128906-.222656.296875-.398437.503906-.523437.210937-.125.464844-.191406.761719-.195313.167968 0 .320312.019531.453125.058594.136719.035156.257812.089844.359375.160156.074218.054688.140625.121094.199218.199219.0625.078125.113282.167969.15625.265625.054688-.089844.121094-.175781.195313-.253906.074219-.078125.152344-.144531.238281-.207031.109375-.066407.230469-.117188.363282-.15625.136718-.039063.289062-.0625.449218-.066407.21875 0 .414063.035157.589844.101563.175781.0625.324219.15625.445312.28125.132813.140625.234376.324218.304688.550781.070312.222656.105469.488281.105469.792969v4.742187h-1.03125v-4.753906c0-.132813-.015625-.25-.046875-.351563-.03125-.101562-.074219-.1875-.132813-.253906-.0625-.0625-.140625-.109375-.234375-.140625-.089844-.03125-.195312-.046875-.320312-.046875-.128906 0-.238282.019532-.332032.054688s-.171874.082031-.234374.140625c-.0625.0625-.113282.132812-.148438.214843-.035156.078126-.058594.167969-.070312.265626v4.871093h-1.03125v-4.757812c0-.132813-.015626-.25-.046876-.355469-.027343-.101562-.074218-.183594-.136718-.25-.058594-.0625-.132813-.109375-.222656-.136719-.085938-.03125-.1875-.046875-.304688-.046875-.128906 0-.242188.015625-.339844.046875-.09375.027344-.171875.070313-.238281.125-.050781.042969-.097656.089844-.136719.144531-.035156.054688-.0625.113282-.085937.175782v5.054687h-1.035157v-6.351562Zm6.414062 3.117187c0-.457031.066407-.882812.199219-1.273437.132812-.394531.324219-.738281.574219-1.027344.246093-.289063.546875-.515625.902343-.679687.355469-.167969.757813-.253907 1.203126-.253907.449218 0 .851562.085938 1.210937.253907.359375.164062.664063.390624.914063.679687.246093.289063.433593.632813.566406 1.027344.136718.390625.203125.816406.203125 1.273437v.128906c0 .457032-.066407.882813-.203125 1.273438-.132813.390625-.320313.734375-.566406 1.023438-.25.289062-.554688.515624-.910157.679687-.355469.164063-.757812.246094-1.203125.246094-.449218 0-.855468-.082031-1.214844-.246094-.355468-.164063-.65625-.390625-.902343-.679687-.25-.289063-.441407-.632813-.574219-1.023438-.132812-.390625-.199219-.816406-.199219-1.273438Zm1.085938.128906c0 .3125.035156.613282.109375.898438.074218.28125.1875.53125.339844.746094.148437.214844.335937.386718.5625.511718.230468.125.492187.1875.792968.1875.296875 0 .558594-.0625.78125-.1875.226563-.125.417969-.296874.570313-.511718.148437-.214844.257812-.464844.332031-.746094.074219-.285156.113281-.585938.113281-.898438v-.128906c0-.308594-.039062-.605468-.117187-.886718-.074219-.285157-.1875-.535157-.335938-.75-.152344-.214844-.34375-.386719-.570312-.511719-.222656-.128907-.484375-.191407-.785156-.191407-.300782 0-.5625.0625-.785157.191407-.222656.125-.410156.296875-.558593.511719-.152344.214843-.265626.464843-.339844.75-.074219.28125-.109375.578124-.109375.886718Zm10.59375-3.363281c.199219 0 .40625.015625.621093.042969.21875.027344.382813.0625.492188.109375l-.144531 1.0625c-.210938-.046875-.414063-.078125-.605469-.097656-.1875-.023438-.386719-.035157-.59375-.035157-.265625 0-.503906.03125-.71875.097657-.21875.0625-.40625.15625-.566406.285156-.144532.109375-.269532.242187-.378906.402344-.105469.15625-.195313.332031-.265626.527343v4.074219h-1.089843v-6.351562h1.03125l.046875.851562.007812.160157c.257813-.347657.566406-.621094.925782-.820313.363281-.207031.777343-.308594 1.238281-.308594Zm3.226562.117188h3.242188v5.414062h2.070312v.9375h-5.3125v-.9375h2.15625v-4.46875h-2.15625Zm2.015625-1.664063c0-.09375.015625-.183594.042969-.265625.03125-.082031.078125-.152343.140625-.210937.050781-.050782.113281-.089844.191406-.117188.082032-.03125.175782-.046875.277344-.046875.101562 0 .191406.015625.269531.046875.078125.027344.144531.066406.195313.117188.0625.054687.109375.125.140625.207031.03125.082031.046875.171875.046875.269531 0 .175782-.054688.320313-.164063.4375-.109375.117188-.273437.179688-.488281.179688-.21875 0-.382812-.0625-.492188-.179688-.105468-.117187-.160156-.261718-.160156-.4375Zm7.832032 8.132813c-.445313 0-.855469-.074219-1.230469-.226563-.371094-.15625-.691407-.367187-.957031-.640625-.265626-.273437-.472657-.597656-.621094-.976562-.148438-.375-.222656-.78125-.222656-1.226563v-.246094c0-.511718.082031-.96875.246093-1.371093.164063-.410157.382813-.753907.65625-1.035157.269531-.277343.578125-.488281.921875-.640624.347656-.148438.703125-.222657 1.066406-.222657.457032 0 .855469.082031 1.195313.242188.347656.15625.632813.375.859375.652343.226562.28125.394531.609376.503906.992188.113282.378906.167969.789062.167969 1.230469v.488281h-4.535156v.039062c.03125.3125.089843.582032.183593.816407.097657.234375.230469.441406.398438.625.171875.191406.378906.339843.621094.449219.242187.109374.511718.164062.804687.164062.386719 0 .730469-.078125 1.03125-.234375.300781-.15625.554688-.363281.753907-.621094l.660156.515625c-.210938.320313-.527344.605469-.949219.855469-.417969.25-.9375.371094-1.554687.371094Zm-.140626-5.691407c-.21875 0-.425781.039063-.621093.121094-.195313.078125-.371094.195313-.527344.347656-.15625.15625-.289063.347657-.398437.574219-.105469.222657-.179688.480469-.226563.777344h3.414063v-.054687c0-.195313-.035157-.40625-.109376-.628907-.074218-.226562-.179687-.421875-.3125-.585937-.132812-.164063-.300781-.296875-.503906-.398438-.199218-.101562-.4375-.152344-.714844-.152344Zm8.769532 3.890626c0-.128907-.023438-.246094-.074219-.347657-.050781-.105469-.136719-.199219-.257813-.285156-.125-.085937-.285156-.164063-.484374-.238281-.199219-.074219-.445313-.140625-.742188-.199219-.363281-.074219-.699219-.164063-1-.269531-.296875-.105469-.550781-.230469-.761719-.378906-.214843-.144532-.382812-.316407-.5-.511719-.117187-.199219-.175781-.429688-.175781-.691407 0-.257812.0625-.5.183594-.722656.121094-.226562.292968-.425781.511718-.59375.21875-.167968.476563-.300781.777344-.398437.304688-.097657.640625-.148438 1.003906-.148438.390626 0 .742188.050781 1.054688.152344.316406.101563.582031.246094.800781.425781.21875.179688.386719.390625.503907.632813.121093.238281.179687.496093.179687.773437h-1.082031c0-.136718-.035156-.269531-.105469-.398437-.070313-.132813-.171875-.25-.296875-.351563-.125-.101562-.277344-.183594-.457031-.246094-.175781-.0625-.375-.09375-.597657-.09375-.230468 0-.433593.023438-.609374.074219-.171876.050781-.316407.121094-.429688.207031-.117188.085938-.203125.183594-.261719.296876-.058593.117187-.089843.234374-.089843.355468 0 .125.023437.234375.070312.332032.046875.097656.128906.1875.246094.265624.113281.078126.265625.148438.457031.210938.195313.0625.445313.125.742187.183594.390626.082031.738282.175781 1.046876.285156.3125.105469.570312.234375.78125.382812.210937.152344.371093.328126.480468.527344.113282.199219.171875.429688.171875.691406 0 .28125-.066406.539063-.195312.769532-.125.230468-.300781.429687-.527344.59375-.226563.164062-.496094.292968-.816406.382812-.316407.089844-.660157.132813-1.035157.132813-.429687 0-.816406-.054688-1.152343-.167969-.335938-.117188-.617188-.273438-.847657-.464844-.234374-.1875-.417968-.40625-.542968-.65625-.121094-.25-.179688-.511718-.179688-.78125h1.085938c.015625.222656.074218.410156.175781.5625.105469.152344.234375.277344.390625.371094.152344.09375.324219.160156.511719.199219.1875.039062.375.058593.558593.058593.289063 0 .539063-.035156.753907-.101562.214843-.070312.386719-.164062.507812-.285156.074219-.074219.128907-.15625.167969-.25.039062-.089844.058594-.183594.058594-.285156Zm5.75 1.429687c0 .394531-.09375.792969-.277344 1.199219-.183594.40625-.429688.75-.746094 1.027344l-.671875-.371094c.1875-.273438.320313-.5625.398438-.875.078125-.308594.117187-.628906.117187-.960938v-1.050781h1.179688Zm5.648437-3.171875v3.425781h-1.085937v-8.542969h2.769531c.382813.007813.746094.066407 1.085937.179688.34375.113281.644532.277344.902344.492188.257813.214843.460938.480468.609375.800781.152344.316406.230469.679687.230469 1.089843 0 .410157-.078125.773438-.230469 1.09375-.148437.3125-.351562.574219-.609375.789063-.257812.214844-.558594.382813-.902344.496094-.339843.113281-.703124.171875-1.085937.175781Zm0-.894531h1.683594c.25-.003907.480469-.042969.691406-.117188.210938-.078125.394531-.1875.550781-.328125.15625-.140625.277344-.3125.363282-.511718.089844-.203126.136718-.433594.136718-.691407 0-.257812-.046874-.492187-.136718-.699219-.085938-.207031-.203125-.382812-.355469-.527343-.15625-.144531-.34375-.253907-.558594-.335938-.210937-.078125-.441406-.117187-.691406-.121093h-1.683594Zm10.1875-2.148438c.199219 0 .40625.015625.625.042969s.382813.0625.492188.109375l-.148438 1.0625c-.210937-.046875-.410156-.078125-.605469-.097656-.1875-.023438-.382812-.035157-.589843-.035157-.265625 0-.507813.03125-.722657.097657-.214843.0625-.402343.15625-.5625.285156-.144531.109375-.273437.242187-.382812.402344-.105469.15625-.191406.332031-.261719.527343v4.074219h-1.09375v-6.351562h1.035157l.046874.851562.003907.160157c.257812-.347657.566406-.621094.929687-.820313.363282-.207031.773438-.308594 1.234375-.308594Zm5.863281 6.585938c-.449218 0-.859374-.074219-1.234374-.226563-.371094-.15625-.6875-.367187-.957032-.640625-.265625-.273437-.472656-.597656-.621094-.976562-.148437-.375-.222656-.78125-.222656-1.226563v-.246094c0-.511718.082032-.96875.246094-1.371093.164062-.410157.382812-.753907.65625-1.035157.273438-.277343.578125-.488281.921875-.640624.347656-.148438.703125-.222657 1.070313-.222657.457031 0 .855468.082031 1.195312.242188.34375.15625.628906.375.855469.652343.226562.28125.394531.609376.503906.992188.113281.378906.171875.789062.171875 1.230469v.488281h-4.535156v.039062c.027344.3125.089844.582032.183594.816407.097656.234375.230468.441406.398437.625.171875.191406.378906.339843.621094.449219.242187.109374.511719.164062.804687.164062.386719 0 .730469-.078125 1.03125-.234375.300782-.15625.550782-.363281.75-.621094l.664063.515625c-.210938.320313-.527344.605469-.949219.855469s-.9375.371094-1.554688.371094Zm-.140624-5.691407c-.222657 0-.429688.039063-.625.121094-.195313.078125-.371094.195313-.527344.347656-.15625.15625-.289063.347657-.398438.574219-.105468.222657-.179687.480469-.222656.777344h3.414062v-.054687c0-.195313-.039062-.40625-.113281-.628907-.074219-.226562-.175781-.421875-.308593-.585937-.132813-.164063-.300782-.296875-.503907-.398438-.199219-.101562-.4375-.152344-.714843-.152344Zm8.769531 3.890626c0-.128907-.027344-.246094-.078125-.347657-.050782-.105469-.136719-.199219-.257813-.285156-.121093-.085937-.28125-.164063-.480469-.238281-.199218-.074219-.449218-.140625-.746093-.199219-.363281-.074219-.695313-.164063-.996094-.269531-.296875-.105469-.550781-.230469-.761719-.378906-.214844-.144532-.382812-.316407-.5-.511719-.117187-.199219-.175781-.429688-.175781-.691407 0-.257812.058594-.5.183594-.722656.121093-.226562.289062-.425781.507812-.59375.21875-.167968.480469-.300781.78125-.398437.304688-.097657.640625-.148438 1.003907-.148438.390624 0 .742187.050781 1.054687.152344.3125.101563.578125.246094.796875.425781.21875.179688.386719.390625.503906.632813.121094.238281.183594.496093.183594.773437h-1.085938c0-.136718-.035156-.269531-.105468-.398437-.070313-.132813-.167969-.25-.292969-.351563-.125-.101562-.277344-.183594-.457031-.246094-.175782-.0625-.375-.09375-.597656-.09375-.230469 0-.433594.023438-.613282.074219-.171875.050781-.3125.121094-.425781.207031-.117187.085938-.207031.183594-.265625.296876-.058594.117187-.085938.234374-.085938.355468 0 .125.023438.234375.070313.332032.046875.097656.128906.1875.246094.265624.113281.078126.265625.148438.457031.210938.195312.0625.441406.125.738281.183594.390625.082031.742188.175781 1.050781.285156.308594.105469.570313.234375.78125.382812.210938.152344.371094.328126.480469.527344.113281.199219.167969.429688.167969.691406 0 .28125-.0625.539063-.191406.769532-.125.230468-.300782.429687-.527344.59375-.226562.164062-.5.292968-.816406.382812-.316406.089844-.664063.132813-1.039063.132813-.429687 0-.8125-.054688-1.148437-.167969-.335938-.117188-.621094-.273438-.851563-.464844-.234375-.1875-.414062-.40625-.539062-.65625-.121094-.25-.183594-.511718-.183594-.78125h1.085937c.015626.222656.074219.410156.175782.5625.105468.152344.238281.277344.394531.371094.152344.09375.320313.160156.507813.199219.191406.039062.375.058593.558593.058593.289063 0 .542969-.035156.757813-.101562.214844-.070312.382812-.164062.503906-.285156.074219-.074219.132812-.15625.171875-.25.039063-.089844.058594-.183594.058594-.285156Zm5.800781 1.800781c-.445312 0-.855469-.074219-1.234375-.226563-.371094-.15625-.6875-.367187-.953125-.640625-.265625-.273437-.472656-.597656-.625-.976562-.148438-.375-.222656-.78125-.222656-1.226563v-.246094c0-.511718.082031-.96875.246094-1.371093.167968-.410157.386718-.753907.660156-1.035157.269531-.277343.574218-.488281.917968-.640624.351563-.148438.707032-.222657 1.070313-.222657.457031 0 .855469.082031 1.195313.242188.34375.15625.628906.375.855468.652343.226563.28125.394532.609376.507813.992188.113281.378906.167969.789062.167969 1.230469v.488281h-4.535157v.039062c.027344.3125.089844.582032.183594.816407.097656.234375.230469.441406.398437.625.171876.191406.378907.339843.621094.449219.242188.109374.511719.164062.804688.164062.386718 0 .730468-.078125 1.03125-.234375.300781-.15625.550781-.363281.75-.621094l.664062.515625c-.210937.320313-.527344.605469-.949218.855469-.417969.25-.9375.371094-1.554688.371094Zm-.140625-5.691407c-.21875 0-.425781.039063-.621094.121094-.195312.078125-.375.195313-.53125.347656-.15625.15625-.289062.347657-.398437.574219-.105469.222657-.179688.480469-.222656.777344h3.414062v-.054687c0-.195313-.035156-.40625-.109375-.628907-.074219-.226562-.179687-.421875-.3125-.585937-.132813-.164063-.300781-.296875-.503906-.398438-.199219-.101562-.4375-.152344-.714844-.152344Zm8.710937-.894531c.199219 0 .40625.015625.621094.042969.21875.027344.382813.0625.492188.109375l-.144532 1.0625c-.210937-.046875-.414062-.078125-.605468-.097656-.1875-.023438-.386719-.035157-.59375-.035157-.265625 0-.503906.03125-.71875.097657-.21875.0625-.40625.15625-.566406.285156-.144532.109375-.269532.242187-.378907.402344-.105469.15625-.195312.332031-.265625.527343v4.074219h-1.089844v-6.351562h1.03125l.046876.851562.007812.160157c.257812-.347657.566406-.621094.925781-.820313.363281-.207031.777344-.308594 1.238281-.308594Zm5.21875 6.46875-2.609374-6.351562h1.113281l1.820312 4.789062.097657.394531.105468-.394531 1.78125-4.789062h1.109375l-2.589843 6.351562Zm7.855469.117188c-.445312 0-.855469-.074219-1.230469-.226563-.371093-.15625-.691406-.367187-.957031-.640625-.265625-.273437-.472656-.597656-.621093-.976562-.148438-.375-.222657-.78125-.222657-1.226563v-.246094c0-.511718.082031-.96875.246094-1.371093.164063-.410157.382813-.753907.65625-1.035157.269531-.277343.578125-.488281.921875-.640624.347656-.148438.703125-.222657 1.066406-.222657.457032 0 .855469.082031 1.199219.242188.339844.15625.625.375.855469.652343.226562.28125.394531.609376.503906.992188.113281.378906.167969.789062.167969 1.230469v.488281h-4.53125v.039062c.027343.3125.085937.582032.179687.816407.097656.234375.230469.441406.398438.625.171875.191406.378906.339843.621094.449219.242187.109374.511718.164062.804687.164062.386719 0 .730469-.078125 1.03125-.234375.304687-.15625.550781-.363281.753906-.621094l.660157.515625c-.210938.320313-.527344.605469-.949219.855469-.417969.25-.933594.371094-1.554688.371094Zm-.140625-5.691407c-.21875 0-.425781.039063-.621094.121094-.195312.078125-.371093.195313-.527343.347656-.15625.15625-.289063.347657-.398438.574219-.105469.222657-.183593.480469-.226562.777344h3.417969v-.054687c0-.195313-.039063-.40625-.113282-.628907-.074218-.226562-.175781-.421875-.308594-.585937-.132812-.164063-.304687-.296875-.503906-.398438-.203125-.101562-.441406-.152344-.71875-.152344Zm12.953125 2.148438v3.425781h-1.085937v-8.542969h2.769531c.382813.007813.742187.066407 1.085937.179688.339844.113281.644532.277344.902344.492188.257813.214843.460938.480468.609375.800781.152344.316406.230469.679687.230469 1.089843 0 .410157-.078125.773438-.230469 1.09375-.148437.3125-.351562.574219-.609375.789063-.257812.214844-.5625.382813-.902344.496094-.34375.113281-.703124.171875-1.085937.175781Zm0-.894531h1.683594c.25-.003907.480469-.042969.691406-.117188.210938-.078125.394531-.1875.550781-.328125.15625-.140625.277344-.3125.363282-.511718.089844-.203126.136718-.433594.136718-.691407 0-.257812-.046874-.492187-.136718-.699219-.085938-.207031-.203125-.382812-.355469-.527343-.15625-.144531-.34375-.253907-.558594-.335938-.210937-.078125-.441406-.117187-.691406-.121093h-1.683594Zm8.832031 4.4375c-.445312 0-.855468-.074219-1.230468-.226563-.371094-.15625-.691406-.367187-.957032-.640625-.265624-.273437-.472656-.597656-.621093-.976562-.148438-.375-.222657-.78125-.222657-1.226563v-.246094c0-.511718.082032-.96875.246094-1.371093.164063-.410157.382813-.753907.65625-1.035157.273438-.277343.578125-.488281.921875-.640624.347657-.148438.703125-.222657 1.066407-.222657.457031 0 .859374.082031 1.199218.242188.34375.15625.628906.375.855469.652343.226563.28125.394531.609376.503906.992188.113281.378906.171875.789062.171875 1.230469v.488281h-4.535156v.039062c.027344.3125.089844.582032.179688.816407.097656.234375.234374.441406.398437.625.175781.191406.382813.339843.625.449219.242187.109374.507813.164062.804687.164062.382813 0 .730469-.078125 1.03125-.234375.300782-.15625.550782-.363281.75-.621094l.664063.515625c-.210937.320313-.527344.605469-.953125.855469-.417969.25-.9375.371094-1.554688.371094Zm-.140624-5.691407c-.21875 0-.425782.039063-.621094.121094-.195313.078125-.371094.195313-.527344.347656-.15625.15625-.289062.347657-.398438.574219-.105468.222657-.179687.480469-.222656.777344h3.414063v-.054687c0-.195313-.039063-.40625-.113281-.628907-.074219-.226562-.175782-.421875-.308594-.585937-.132813-.164063-.300782-.296875-.507813-.398438-.199219-.101562-.4375-.152344-.714843-.152344Zm8.710937-.894531c.199219 0 .410156.015625.621094.042969.222656.027344.386719.0625.496093.109375l-.148437 1.0625c-.210937-.046875-.414063-.078125-.601563-.097656-.191406-.023438-.386718-.035157-.59375-.035157-.265624 0-.507812.03125-.722656.097657-.214844.0625-.402344.15625-.5625.285156-.144531.109375-.273437.242187-.382812.402344-.105469.15625-.191406.332031-.261719.527343v4.074219h-1.09375v-6.351562h1.035156l.046875.851562.003906.160157c.261719-.347657.570313-.621094.925782-.820313.367187-.207031.777344-.308594 1.238281-.308594Zm4.675781 6.46875v-5.511719h-1.746094v-.839843h1.746094v-.445313c0-.40625.058594-.761718.179688-1.066406.117187-.308594.289062-.566406.507812-.777344.214844-.207031.476563-.363281.78125-.46875.304688-.105468.644532-.15625 1.019532-.15625.15625 0 .3125.007813.464843.027344.152344.015625.300781.039062.449219.066406.097656.019532.195312.039063.292969.0625.097656.019532.199219.042969.300781.070313l-.128906.898437c-.160156-.054687-.347656-.101562-.5625-.140625-.210938-.042969-.4375-.0625-.679688-.0625-.25 0-.46875.03125-.65625.09375-.191406.058594-.347656.148438-.472656.269531-.132812.125-.234375.285157-.304688.484376-.066406.203124-.101562.433593-.101562.699218v.445313h2.449219v.839843H262.3125v5.511719Zm8.402344.117188c-.449219 0-.859375-.074219-1.234375-.226563-.371094-.15625-.691406-.367187-.957031-.640625-.265625-.273437-.46875-.597656-.621094-.976562-.148438-.375-.21875-.78125-.21875-1.226563v-.246094c0-.511718.078125-.96875.242188-1.371093.164062-.410157.382812-.753907.660156-1.035157.265625-.277343.578125-.488281.917968-.640624.347657-.148438.707032-.222657 1.070313-.222657.457031 0 .855469.082031 1.195313.242188.34375.15625.628906.375.855468.652343.226563.28125.398438.609376.507813.992188.113281.378906.167969.789062.167969 1.230469v.488281h-4.535157v.039062c.027344.3125.085938.582032.183594.816407s.230469.441406.398437.625c.171876.191406.378907.339843.621094.449219.242188.109374.511719.164062.804688.164062.386718 0 .730468-.078125 1.03125-.234375.300781-.15625.550781-.363281.75-.621094l.664062.515625c-.210937.320313-.527344.605469-.949218.855469-.417969.25-.9375.371094-1.554688.371094Zm-.140625-5.691407c-.21875 0-.425781.039063-.621094.121094-.195312.078125-.371093.195313-.527343.347656-.160157.15625-.292969.347657-.402344.574219-.105469.222657-.179688.480469-.222656.777344H271.125v-.054687c0-.195313-.035156-.40625-.113281-.628907-.070313-.226562-.175781-.421875-.308594-.585937-.132813-.164063-.300781-.296875-.503906-.398438-.199219-.101562-.4375-.152344-.714844-.152344Zm7.253906 4.8125c.195313 0 .386719-.03125.570313-.09375.1875-.0625.351562-.152343.5-.265624.144531-.109376.257812-.238282.34375-.386719.089844-.152344.136718-.316407.140625-.492188h1.027343c-.003906.28125-.078124.550781-.222656.808594-.140625.253906-.332031.476563-.570312.667969-.238282.195312-.511719.355468-.820313.472656-.308593.113281-.632812.167969-.96875.167969-.480469 0-.898437-.085938-1.261719-.257813-.359374-.171875-.65625-.40625-.894531-.699218-.242187-.289063-.425781-.625-.546875-1.003907-.121094-.382812-.179687-.785156-.179687-1.207031v-.246094c0-.417968.058593-.820312.179687-1.203125.121094-.382812.304688-.722656.546875-1.015625.238281-.289062.535157-.519531.894531-.695312.363282-.171875.78125-.257813 1.261719-.257813.375 0 .71875.0625 1.03125.183594.320313.117187.59375.277344.824219.480469.226562.207031.40625.453125.535156.734375.125.28125.191406.582031.191406.902343h-1.027343c-.003907-.191406-.046875-.371093-.128907-.539062-.078124-.171875-.183593-.324219-.320312-.453125-.140625-.128906-.300781-.230469-.496094-.304687-.1875-.074219-.390625-.109376-.609375-.109376-.335937 0-.617187.066407-.847656.203126-.226563.132812-.414063.308593-.550781.523437-.144532.21875-.242188.464844-.308594.734375-.058594.269531-.085938.542969-.085938.816406v.246094c0 .277344.027344.554688.085938.828125.066406.269531.164062.511719.308594.726563.132812.21875.316406.398437.542968.535156.230469.132812.515626.199218.855469.199218Zm7.082031-7.125v1.535157h2.417969v.839843h-2.417969v3.453126c0 .246093.03125.449218.09375.609374.0625.160157.148438.289063.257813.382813.109375.097656.234375.164063.375.203125.144531.039062.296875.058594.457031.058594.117188 0 .238282-.003906.363282-.015625.128906-.015625.25-.035157.371093-.054688.117188-.019531.226563-.039062.328125-.058593.105469-.023438.191406-.042969.257813-.058594l.152343.769531c-.089843.054687-.199218.105469-.328124.148437-.128907.039063-.269532.070313-.421876.097657-.152343.03125-.316406.054687-.488281.070312-.167969.015625-.335937.023438-.503906.023438-.28125 0-.542969-.039063-.792969-.117188-.242187-.082031-.453125-.210937-.632812-.386719-.179688-.171874-.320313-.394531-.425782-.667968-.101562-.277344-.152343-.613282-.152343-1.003906v-3.453126H281.0625v-.839843h1.667969v-1.535157Zm4.816407 1.535157h3.242187v5.414062h2.070313v.9375h-5.3125v-.9375h2.160156v-4.46875h-2.160156Zm2.015625-1.664063c0-.09375.015625-.183594.042968-.265625.03125-.082031.078126-.152343.140626-.210937.050781-.050782.117187-.089844.191406-.117188.082031-.03125.175781-.046875.277344-.046875.101562 0 .191406.015625.269531.046875.078125.027344.144531.066406.195312.117188.0625.054687.109375.125.140625.207031.03125.082031.046875.171875.046875.269531 0 .175782-.058593.320313-.167969.4375-.109374.117188-.269531.179688-.484374.179688-.21875 0-.382813-.0625-.492188-.179688-.105469-.117187-.160156-.261718-.160156-.4375Zm4.722656 4.78125c0-.457031.066406-.882812.199219-1.273437.132812-.394531.324219-.738281.574219-1.027344.25-.289063.546874-.515625.90625-.679687.355468-.167969.753906-.253907 1.203124-.253907.445313 0 .851563.085938 1.207032.253907.359375.164062.664062.390624.914062.679687.246094.289063.4375.632813.570313 1.027344.132812.390625.199219.816406.199219 1.273437v.128906c0 .457032-.066407.882813-.199219 1.273438-.132813.390625-.324219.734375-.570313 1.023438-.25.289062-.550781.515624-.90625.679687-.359375.164063-.757812.246094-1.207031.246094-.445313 0-.851563-.082031-1.210937-.246094-.359376-.164063-.65625-.390625-.90625-.679687-.25-.289063-.441407-.632813-.574219-1.023438-.132813-.390625-.199219-.816406-.199219-1.273438Zm1.085938.128906c0 .3125.035156.613282.113281.898438.074219.28125.183593.53125.339843.746094.148438.214844.335938.386718.5625.511718.226563.125.492188.1875.789063.1875.300781 0 .558594-.0625.78125-.1875.230469-.125.417969-.296874.570313-.511718.148437-.214844.257812-.464844.335937-.746094.074219-.285156.109375-.585938.109375-.898438v-.128906c0-.308594-.039062-.605468-.117188-.886718-.074218-.285157-.183593-.535157-.335937-.75-.152344-.214844-.339844-.386719-.566406-.511719-.222657-.128907-.484375-.191407-.785157-.191407-.304687 0-.566406.0625-.789062.191407-.222656.125-.40625.296875-.554688.511719-.15625.214843-.265624.464843-.339843.75-.078125.28125-.113281.578124-.113281.886718Zm6.4375 3.105469v-6.351562h.972656l.074218.941406c.09375-.132813.195313-.253906.304688-.363281.113281-.113282.234375-.210938.359375-.292969.1875-.128906.390625-.222656.609375-.289063.222656-.070312.457031-.109374.707031-.113281.332031 0 .632813.046875.902344.140625.269531.09375.503906.242188.695313.441406.191406.199219.339843.453126.441406.761719.105468.308594.15625.671875.15625 1.09375v4.03125h-1.082032v-4.007812c0-.28125-.03125-.519531-.097656-.714844-.0625-.195313-.152344-.355469-.273437-.476563-.125-.121093-.277344-.210937-.457031-.265624-.175782-.054688-.378907-.082032-.609376-.082032-.199218 0-.386718.03125-.558593.089844-.171875.054688-.332031.128906-.476563.226562-.117187.085938-.226562.1875-.328125.300782-.097656.113281-.183593.238281-.257812.375v4.554687Zm15.039062 0-1.347656-6.351562h.960937l.738281 4.050781.128907.910156.160156-.910156 1.011719-4.050781h.699218l1.007813 4.050781.171875 1 .15625-1 .707031-4.050781h.960938l-1.351563 6.351562h-.855468l-.988282-3.890625-.167968-.984375-.15625.984375-.980469 3.890625Zm6.773438-6.351562h3.246093v5.414062h2.070313v.9375h-5.316406v-.9375h2.160156v-4.46875h-2.160156Zm2.019531-1.664063c0-.09375.011719-.183594.042969-.265625.027343-.082031.074218-.152343.136718-.210937.054688-.050782.117188-.089844.195313-.117188.082031-.03125.175781-.046875.277343-.046875.097657 0 .1875.015625.269532.046875.078125.027344.140625.066406.191406.117188.0625.054687.109375.125.140625.207031.03125.082031.046875.171875.046875.269531 0 .175782-.054688.320313-.164062.4375-.109376.117188-.269532.179688-.484376.179688-.21875 0-.386718-.0625-.496093-.179688-.105469-.117187-.15625-.261718-.15625-.4375Zm7.59375.128906v1.535157h2.417969v.839843h-2.417969v3.453126c0 .246093.035156.449218.097656.609374.058594.160157.144531.289063.253906.382813.113281.097656.238281.164063.378907.203125.144531.039062.296874.058594.457031.058594.117187 0 .238281-.003906.363281-.015625.125-.015625.25-.035157.371094-.054688.117187-.019531.226562-.039062.328125-.058593.105469-.023438.191406-.042969.257812-.058594l.152344.769531c-.089844.054687-.199219.105469-.328125.148437-.128906.039063-.269531.070313-.421875.097657-.152344.03125-.316406.054687-.488281.070312-.167969.015625-.335938.023438-.503906.023438-.28125 0-.546876-.039063-.792969-.117188-.242188-.082031-.453125-.210937-.632813-.386719-.179687-.171874-.324218-.394531-.429687-.667968-.097657-.277344-.152344-.613282-.152344-1.003906v-3.453126h-1.664063v-.839843h1.664063v-1.535157Zm5.734375 2.480469c.085937-.128906.179687-.246093.285156-.351562.105469-.109375.21875-.203125.335938-.285157.1875-.136718.394531-.242187.617187-.3125.226563-.070312.464844-.109374.71875-.113281.332031 0 .632813.050781.902344.148438.277343.09375.507812.242187.699219.445312.191406.203125.339843.460938.441406.773438.105468.3125.160156.679687.160156 1.105469v3.996093h-1.085938v-4.007812c0-.25-.03125-.46875-.089843-.65625-.058594-.191407-.144531-.351563-.257813-.476563-.121094-.136718-.273437-.238281-.457031-.304687-.183594-.070313-.394531-.105469-.632813-.101563-.195312 0-.382812.027344-.558593.082032-.175781.054687-.339844.132812-.488281.234374-.117188.078126-.226563.171876-.328126.277344-.097656.101563-.183593.214844-.261718.339844v4.613281h-1.085938v-9.015625h1.085938Zm14.53125 1.980469v3.425781h-1.085938v-8.542969h2.769532c.378906.007813.742187.066407 1.085937.179688.339844.113281.640625.277344.902344.492188.257812.214843.460937.480468.609375.800781.152344.316406.226562.679687.226562 1.089843 0 .410157-.074218.773438-.226562 1.09375-.148438.3125-.351563.574219-.609375.789063-.261719.214844-.5625.382813-.902344.496094-.34375.113281-.707031.171875-1.085937.175781Zm0-.894531h1.683594c.246093-.003907.480468-.042969.6875-.117188.214843-.078125.398437-.1875.554687-.328125.15625-.140625.277344-.3125.363281-.511718.089844-.203126.136719-.433594.136719-.691407 0-.257812-.046875-.492187-.136719-.699219-.085937-.207031-.207031-.382812-.359375-.527343-.15625-.144531-.339843-.253907-.558593-.335938-.207032-.078125-.441407-.117187-.6875-.121093h-1.683594Zm6.199218-2.03125h3.242188v5.414062h2.074219v.9375h-5.316407v-.9375h2.15625v-4.46875h-2.15625Zm2.015626-1.664063c0-.09375.015624-.183594.042968-.265625.03125-.082031.078125-.152343.140625-.210937.050781-.050782.113281-.089844.195313-.117188.078125-.03125.171875-.046875.273437-.046875.101563 0 .191407.015625.269531.046875.078126.027344.144532.066406.195313.117188.058594.054687.109375.125.140625.207031.03125.082031.046875.171875.046875.269531 0 .175782-.054687.320313-.164063.4375-.109374.117188-.273437.179688-.488281.179688-.21875 0-.382812-.0625-.492187-.179688-.105469-.117187-.160156-.261718-.160156-.4375Zm7.734374 7.253906c.195313 0 .382813-.03125.566407-.09375.1875-.0625.355469-.152343.5-.265624.144531-.109376.261719-.238282.347656-.386719.089844-.152344.132813-.316407.136719-.492188h1.027344c-.003907.28125-.078126.550781-.222657.808594-.140625.253906-.328125.476563-.566406.667969-.242187.195312-.511719.355468-.824219.472656-.308594.113281-.632812.167969-.964844.167969-.484374 0-.902343-.085938-1.261718-.257813-.359375-.171875-.660156-.40625-.898438-.699218-.242187-.289063-.421875-.625-.546875-1.003907-.121093-.382812-.179687-.785156-.179687-1.207031v-.246094c0-.417968.058594-.820312.179687-1.203125.125-.382812.304688-.722656.546875-1.015625.238282-.289062.539063-.519531.898438-.695312.359375-.171875.777344-.257813 1.261718-.257813.375 0 .71875.0625 1.03125.183594.316407.117187.589844.277344.820313.480469.226563.207031.40625.453125.535156.734375.128907.28125.191407.582031.191407.902343h-1.027344c-.003906-.191406-.046875-.371093-.128906-.539062-.074219-.171875-.183594-.324219-.320313-.453125-.136719-.128906-.300781-.230469-.492187-.304687-.1875-.074219-.390626-.109376-.609376-.109376-.335937 0-.621093.066407-.851562.203126-.226562.132812-.410156.308593-.550781.523437-.140625.21875-.242188.464844-.304688.734375-.058593.269531-.089843.542969-.089843.816406v.246094c0 .277344.03125.554688.089843.828125.0625.269531.164063.511719.304688.726563.136719.21875.316406.398437.542969.535156.230468.132812.515624.199218.859374.199218Zm7.078126-7.125v1.535157h2.417968v.839843h-2.417968v3.453126c0 .246093.03125.449218.09375.609374.0625.160157.148437.289063.257812.382813.109375.097656.238281.164063.375.203125.148438.039062.300781.058594.457031.058594.117188 0 .242188-.003906.367188-.015625.125-.015625.246093-.035157.367187-.054688.117188-.019531.226563-.039062.328125-.058593.109375-.023438.195313-.042969.261719-.058594l.152344.769531c-.089844.054687-.199219.105469-.328125.148437-.132813.039063-.273438.070313-.425781.097657-.152344.03125-.3125.054687-.484376.070312-.171874.015625-.339843.023438-.503906.023438-.285156 0-.546875-.039063-.792968-.117188-.246094-.082031-.453126-.210937-.636719-.386719-.179688-.171874-.320313-.394531-.425781-.667968-.101563-.277344-.152344-.613282-.152344-1.003906v-3.453126h-1.667969v-.839843h1.667969v-1.535157Zm9.394531 4.59375h-4.488281v-.890624h4.488281Zm8.023437-.484374c-.003906.304687-.03125.613281-.082031.925781-.046875.308593-.121094.609375-.222656.898437-.101563.289063-.234375.558594-.394531.808594-.15625.25-.34375.46875-.5625.65625s-.472657.339844-.757813.449219c-.28125.105469-.597656.15625-.949219.15625-.351562 0-.671875-.050781-.957031-.15625-.28125-.109375-.53125-.261719-.75-.449219s-.410156-.40625-.570313-.65625c-.160156-.253906-.289062-.527344-.390624-.816406-.109376-.289063-.183594-.585938-.238282-.898438-.046875-.308594-.074218-.613281-.082031-.917968v-.976563c.007813-.304687.03125-.613281.078125-.921875.050781-.3125.128906-.613281.234375-.902344.101563-.289062.230469-.558594.386719-.8125.160156-.253906.351562-.476562.570312-.667968.21875-.1875.46875-.332032.75-.4375.285156-.109376.605469-.167969.957032-.167969.351562 0 .671874.058593.957031.167969.285156.105468.535156.25.753906.4375.222656.1875.40625.410156.5625.664062.164063.25.296875.519531.402344.808594.101562.289062.175781.59375.222656.90625.050781.3125.078125.621094.082031.925781Zm-1.074218-.988282c-.003907-.203125-.015626-.414062-.042969-.632812-.023438-.222656-.058594-.445313-.117188-.664063-.058593-.214843-.132812-.421875-.226562-.617187-.09375-.199219-.210938-.375-.351563-.527344-.140625-.148438-.308594-.265625-.5-.351562-.191406-.089844-.414062-.136719-.667968-.136719-.25 0-.472657.046875-.664063.136719-.191406.089843-.355469.210937-.496094.359374-.144531.152344-.257812.328126-.355469.527344-.09375.195313-.164062.398438-.222656.617188-.054687.21875-.097656.4375-.128906.660156-.023438.21875-.035156.429688-.039062.628906v.988282c.003906.199218.015624.410156.039062.632812.03125.222656.074219.441406.128906.65625.058594.21875.136719.429688.230469.628906.09375.199219.210937.371094.351563.523438.140624.152344.308593.273437.5.363281.1875.089844.414062.132813.667968.132813s.476563-.042969.667969-.132813c.195313-.089844.363281-.210937.503906-.363281.140625-.152344.25-.324219.339844-.519532.09375-.199218.171875-.40625.230469-.625.054687-.21875.09375-.4375.109375-.660156.027343-.222656.039062-.433594.042969-.636718Zm7.476562 1.472656h-4.484375v-.890624h4.484375Zm3.65625-.132812v3.425781h-1.085938v-8.542969h2.769532c.382812.007813.746094.066407 1.085937.179688.34375.113281.644531.277344.902344.492188.257813.214843.464844.480468.609375.800781.152344.316406.230469.679687.230469 1.089843 0 .410157-.078125.773438-.230469 1.09375-.144531.3125-.351562.574219-.609375.789063-.257813.214844-.558594.382813-.902344.496094-.339843.113281-.703125.171875-1.085937.175781Zm0-.894531h1.683594c.25-.003907.480468-.042969.691406-.117188.214844-.078125.394531-.1875.550781-.328125.15625-.140625.28125-.3125.367188-.511718.089843-.203126.132812-.433594.132812-.691407 0-.257812-.042969-.492187-.132812-.699219-.085938-.207031-.207031-.382812-.359375-.527343-.15625-.144531-.339844-.253907-.558594-.335938-.210938-.078125-.441406-.117187-.691406-.121093h-1.683594Zm10.191406-2.148438c.195313 0 .40625.015625.621094.042969.21875.027344.382812.0625.492188.109375l-.144532 1.0625c-.214844-.046875-.414062-.078125-.605468-.097656-.1875-.023438-.386719-.035157-.59375-.035157-.265626 0-.503907.03125-.71875.097657-.21875.0625-.40625.15625-.566407.285156-.144531.109375-.273437.242187-.382812.402344-.101563.15625-.191407.332031-.261719.527343v4.074219h-1.089844v-6.351562h1.03125l.046875.851562.007813.160157c.257812-.347657.566406-.621094.925781-.820313.363281-.207031.773437-.308594 1.238281-.308594Zm5.859375 6.585938c-.445312 0-.855469-.074219-1.230469-.226563-.371093-.15625-.691406-.367187-.957031-.640625-.269531-.273437-.472656-.597656-.625-.976562-.148437-.375-.222656-.78125-.222656-1.226563v-.246094c0-.511718.085937-.96875.246094-1.371093.167969-.410157.386719-.753907.660156-1.035157.269531-.277343.574219-.488281.921875-.640624.347656-.148438.703125-.222657 1.066406-.222657.457032 0 .855469.082031 1.195313.242188.34375.15625.628906.375.859375.652343.222656.28125.394531.609376.503906.992188.113281.378906.167969.789062.167969 1.230469v.488281h-4.535157v.039062c.027344.3125.089844.582032.183594.816407.097656.234375.230469.441406.398438.625.171875.191406.378906.339843.621094.449219.242187.109374.511718.164062.804687.164062.386719 0 .730469-.078125 1.03125-.234375.300781-.15625.550781-.363281.753906-.621094l.660157.515625c-.210938.320313-.527344.605469-.949219.855469-.417969.25-.9375.371094-1.554688.371094Zm-.140625-5.691407c-.21875 0-.425781.039063-.621094.121094-.195312.078125-.371093.195313-.527343.347656-.15625.15625-.289063.347657-.398438.574219-.109375.222657-.183593.480469-.226562.777344h3.414062v-.054687c0-.195313-.035156-.40625-.109375-.628907-.074218-.226562-.179687-.421875-.3125-.585937-.132812-.164063-.300781-.296875-.503906-.398438-.199219-.101562-.4375-.152344-.714844-.152344Zm8.769532 3.890626c0-.128907-.023438-.246094-.078126-.347657-.050781-.105469-.136718-.199219-.253906-.285156-.125-.085937-.285156-.164063-.484375-.238281-.199219-.074219-.445312-.140625-.746093-.199219-.359376-.074219-.695313-.164063-.996094-.269531-.296875-.105469-.550782-.230469-.761719-.378906-.214844-.144532-.382813-.316407-.5-.511719-.117187-.199219-.175781-.429688-.175781-.691407 0-.257812.0625-.5.183594-.722656.121093-.226562.289062-.425781.507812-.59375.21875-.167968.480469-.300781.78125-.398437.304688-.097657.640625-.148438 1.003906-.148438.390625 0 .742188.050781 1.054688.152344.3125.101563.578125.246094.796875.425781.21875.179688.390625.390625.503906.632813.125.238281.183594.496093.183594.773437h-1.085938c0-.136718-.035156-.269531-.105469-.398437-.070312-.132813-.167968-.25-.292968-.351563-.125-.101562-.277344-.183594-.457032-.246094-.175781-.0625-.375-.09375-.597656-.09375-.230468 0-.433594.023438-.609375.074219-.171875.050781-.316406.121094-.429687.207031-.117188.085938-.203125.183594-.265625.296876-.054688.117187-.085938.234374-.085938.355468 0 .125.023438.234375.070313.332032.046875.097656.128906.1875.246094.265624.113281.078126.265624.148438.457031.210938.195312.0625.441406.125.742187.183594.390625.082031.738282.175781 1.046875.285156.308594.105469.570313.234375.78125.382812.210938.152344.371094.328126.480469.527344.113281.199219.171875.429688.171875.691406 0 .28125-.066406.539063-.195313.769532-.125.230468-.300781.429687-.527343.59375-.226563.164062-.496094.292968-.816407.382812-.316406.089844-.660156.132813-1.035156.132813-.433594 0-.816406-.054688-1.152344-.167969-.335937-.117188-.621093-.273438-.851562-.464844-.234375-.1875-.414062-.40625-.539062-.65625-.121094-.25-.179688-.511718-.179688-.78125h1.082031c.015625.222656.078125.410156.179688.5625.101562.152344.234375.277344.390625.371094.152344.09375.324218.160156.511718.199219.1875.039062.371094.058593.558594.058593.289063 0 .539063-.035156.753906-.101562.214844-.070312.382813-.164062.503907-.285156.074219-.074219.132812-.15625.171875-.25.039062-.089844.058594-.183594.058594-.285156Zm5.800781 1.800781c-.445313 0-.855469-.074219-1.234375-.226563-.371094-.15625-.6875-.367187-.953125-.640625-.265625-.273437-.472657-.597656-.621094-.976562-.148437-.375-.222656-.78125-.222656-1.226563v-.246094c0-.511718.082031-.96875.246093-1.371093.164063-.410157.382813-.753907.65625-1.035157.269532-.277343.578126-.488281.917969-.640624.351563-.148438.707031-.222657 1.070313-.222657.457031 0 .855468.082031 1.195312.242188.34375.15625.628906.375.859375.652343.226563.28125.394531.609376.503907.992188.113281.378906.171874.789062.171874 1.230469v.488281h-4.535156v.039062c.027344.3125.085938.582032.179688.816407.097656.234375.230468.441406.398437.625.171875.191406.378907.339843.621094.449219.242187.109374.511719.164062.804687.164062.386719 0 .730469-.078125 1.03125-.234375.304688-.15625.550782-.363281.75-.621094l.664063.515625c-.210937.320313-.527344.605469-.949219.855469-.417968.25-.9375.371094-1.554687.371094Zm-.140625-5.691407c-.21875 0-.425782.039063-.621094.121094-.195312.078125-.371094.195313-.527344.347656-.15625.15625-.292968.347657-.402344.574219-.101562.222657-.179687.480469-.222656.777344h3.417969v-.054687c0-.195313-.039063-.40625-.113281-.628907-.074219-.226562-.175782-.421875-.3125-.585937-.132813-.164063-.300782-.296875-.503906-.398438-.199219-.101562-.4375-.152344-.714844-.152344Zm8.710937-.894531c.199219 0 .40625.015625.621094.042969.222656.027344.382813.0625.492187.109375l-.144531 1.0625c-.210937-.046875-.414062-.078125-.605469-.097656-.1875-.023438-.382812-.035157-.589843-.035157-.269531 0-.507813.03125-.722657.097657-.214843.0625-.402343.15625-.5625.285156-.144531.109375-.273437.242187-.382812.402344-.105469.15625-.195312.332031-.265625.527343v4.074219h-1.089844v-6.351562h1.03125l.046875.851562.007813.160157c.257812-.347657.566406-.621094.925781-.820313.363281-.207031.777344-.308594 1.238281-.308594Zm5.21875 6.46875-2.609375-6.351562h1.117188l1.816406 4.789062.101562.394531.105469-.394531 1.777344-4.789062h1.109375l-2.589844 6.351562Zm7.859375.117188c-.449218 0-.859375-.074219-1.234375-.226563-.371093-.15625-.6875-.367187-.957031-.640625-.265625-.273437-.472656-.597656-.621094-.976562-.148437-.375-.222656-.78125-.222656-1.226563v-.246094c0-.511718.082031-.96875.246094-1.371093.164062-.410157.382812-.753907.65625-1.035157.269531-.277343.578125-.488281.921875-.640624.347656-.148438.703125-.222657 1.066406-.222657.457031 0 .859375.082031 1.199219.242188.34375.15625.628906.375.855468.652343.226563.28125.394532.609376.503907.992188.113281.378906.167969.789062.167969 1.230469v.488281h-4.53125v.039062c.027343.3125.085937.582032.183593.816407.09375.234375.226563.441406.394531.625.175782.191406.378907.339843.621094.449219.246094.109374.511719.164062.804688.164062.386718 0 .734375-.078125 1.035156-.234375.300781-.15625.550781-.363281.75-.621094l.664062.515625c-.210937.320313-.53125.605469-.953124.855469-.417969.25-.933594.371094-1.550782.371094Zm-.144531-5.691407c-.21875 0-.425781.039063-.621094.121094-.195312.078125-.371093.195313-.527343.347656-.15625.15625-.289063.347657-.398438.574219-.105469.222657-.179688.480469-.222656.777344h3.414062v-.054687c0-.195313-.039062-.40625-.113281-.628907-.074219-.226562-.175781-.421875-.308594-.585937-.132812-.164063-.304687-.296875-.503906-.398438-.199219-.101562-.441406-.152344-.71875-.152344Zm0 0"/>
</svg>
